M48
; DRILL file {KiCad (5.1.9)-1} date 06/14/21 16:42:38
; FORMAT={-:-/ absolute / metric / decimal}
; #@! TF.CreationDate,2021-06-14T16:42:38+02:00
; #@! TF.GenerationSoftware,Kicad,Pcbnew,(5.1.9)-1
; #@! TF.FileFunction,Plated,1,2,PTH
FMAT,2
METRIC
T1C0.400
T2C0.762
T3C1.000
T4C1.300
T5C3.200
%
G90
G05
T1
X56.896Y-77.724
X60.96Y-77.724
X61.468Y-103.632
X62.0Y-55.0
X66.802Y-44.704
X66.802Y-46.482
X66.802Y-48.514
X66.802Y-50.546
X66.802Y-52.07
X68.58Y-85.344
X69.342Y-82.55
X69.596Y-76.454
X70.866Y-44.196
X70.866Y-50.8
X70.866Y-52.07
X71.374Y-55.88
X71.628Y-82.55
X71.628Y-85.09
X72.136Y-73.66
X73.152Y-52.07
X73.914Y-85.852
X74.676Y-55.88
X75.0Y-88.0
X75.438Y-68.834
X75.692Y-60.706
X75.692Y-74.93
X76.2Y-65.278
X76.708Y-55.626
X76.962Y-52.07
X76.962Y-58.674
X76.962Y-89.154
X77.724Y-84.074
X77.978Y-90.678
X77.978Y-97.028
X78.232Y-93.472
X78.994Y-74.676
X79.248Y-71.628
X80.264Y-51.816
X80.518Y-65.278
X80.772Y-58.166
X81.28Y-100.076
X81.534Y-59.436
X81.534Y-96.52
X81.788Y-57.404
X81.788Y-61.468
X81.788Y-83.058
X81.788Y-86.36
X83.312Y-98.298
X85.852Y-97.282
X99.314Y-86.614
X101.092Y-113.03
X105.156Y-103.378
X106.0Y-54.0
X107.41Y-102.87
X107.95Y-104.14
X109.728Y-104.14
X110.077Y-102.87
X112.522Y-57.15
X112.776Y-103.378
X118.364Y-86.868
X125.222Y-41.656
X125.222Y-110.744
X128.524Y-108.204
X128.524Y-112.014
X129.54Y-106.172
X130.397Y-102.902
X131.318Y-108.966
X133.096Y-106.426
X133.35Y-86.614
X133.8Y-107.6
X135.477Y-102.839
X135.54Y-57.309
X136.398Y-83.312
X138.081Y-57.309
X138.176Y-86.614
X140.208Y-83.312
X140.62Y-57.373
X140.716Y-78.994
X140.97Y-86.614
X142.24Y-57.404
X143.002Y-81.026
X143.51Y-55.118
X143.764Y-86.868
X144.272Y-75.946
X144.526Y-59.182
X144.78Y-87.376
X145.796Y-83.312
X146.05Y-86.868
X146.812Y-59.182
X147.066Y-79.248
X147.32Y-88.138
X147.574Y-55.118
X147.574Y-83.566
X147.574Y-86.614
X149.352Y-57.658
X149.606Y-59.944
X149.606Y-83.566
X149.606Y-86.614
X150.622Y-63.754
X150.876Y-55.118
X150.876Y-104.394
X151.13Y-83.312
X151.13Y-88.138
X152.146Y-60.198
X152.654Y-63.754
X154.178Y-66.548
X154.686Y-63.754
X156.972Y-59.944
X156.972Y-63.754
X159.258Y-83.312
X162.56Y-83.566
X163.068Y-68.834
X163.068Y-72.39
X163.068Y-78.232
X163.322Y-90.17
X163.576Y-65.024
X164.592Y-77.47
X164.592Y-83.566
X164.846Y-52.832
X164.846Y-55.118
X164.846Y-66.548
X165.1Y-80.772
X166.116Y-70.104
X166.878Y-75.692
X167.132Y-78.74
X167.386Y-52.832
X167.386Y-55.118
X167.386Y-83.566
X167.894Y-90.424
X170.434Y-83.566
X174.244Y-83.82
X178.816Y-83.82
X180.552Y-74.422
X181.864Y-84.328
X186.69Y-75.692
X188.976Y-73.152
X190.5Y-75.946
X192.024Y-84.074
X192.786Y-73.152
X195.58Y-84.328
X195.804Y-74.482
X200.66Y-75.438
X203.2Y-72.898
X204.47Y-75.692
X207.01Y-73.152
X211.328Y-74.422
X214.884Y-84.582
X218.186Y-85.344
X219.456Y-73.152
X219.456Y-75.692
X225.288Y-74.422
T2
X59.155Y-76.04
X61.905Y-58.54
X68.905Y-58.54
X71.655Y-76.04
T3
X60.325Y-109.25
X60.325Y-132.75
X63.5Y-95.885
X63.575Y-109.25
X66.04Y-95.885
X71.075Y-109.25
X74.325Y-109.25
X74.325Y-132.75
X78.232Y-76.708
X78.232Y-79.248
X84.677Y-64.739
X84.677Y-69.946
X84.677Y-90.266
X84.677Y-95.219
X87.217Y-64.739
X87.217Y-69.946
X87.217Y-90.266
X87.217Y-95.219
X89.757Y-64.739
X89.757Y-69.946
X89.757Y-90.266
X89.757Y-95.219
X92.297Y-64.739
X92.297Y-69.946
X92.297Y-90.266
X92.297Y-95.219
X94.837Y-64.739
X94.837Y-69.946
X94.837Y-90.266
X94.837Y-95.219
X97.377Y-64.739
X97.377Y-69.946
X97.377Y-90.266
X97.377Y-95.219
X99.917Y-64.739
X99.917Y-69.946
X99.917Y-90.266
X99.917Y-95.219
X102.457Y-64.739
X102.457Y-69.946
X102.457Y-90.266
X102.457Y-95.219
X104.997Y-64.739
X104.997Y-69.946
X104.997Y-90.266
X104.997Y-95.219
X107.537Y-64.739
X107.537Y-69.946
X107.537Y-90.266
X107.537Y-95.219
X110.077Y-64.739
X110.077Y-69.946
X110.077Y-90.266
X110.077Y-95.219
X110.585Y-42.26
X110.585Y-44.8
X112.617Y-64.739
X112.617Y-69.946
X112.617Y-90.266
X112.617Y-95.219
X113.125Y-42.26
X113.125Y-44.8
X115.157Y-64.739
X115.157Y-69.946
X115.157Y-90.266
X115.157Y-95.219
X115.665Y-42.26
X115.665Y-44.8
X117.697Y-64.739
X117.697Y-69.946
X117.697Y-90.266
X117.697Y-95.219
X118.205Y-42.26
X118.205Y-44.8
X120.237Y-64.739
X120.237Y-69.946
X120.237Y-90.266
X120.237Y-95.219
X120.745Y-42.26
X120.745Y-44.8
X122.777Y-64.739
X122.777Y-69.946
X122.777Y-90.266
X122.777Y-95.219
X125.317Y-64.739
X125.317Y-69.946
X125.317Y-90.266
X125.317Y-95.219
X127.857Y-64.739
X127.857Y-69.946
X127.857Y-90.266
X127.857Y-95.219
X130.397Y-64.739
X130.397Y-69.946
X130.397Y-90.266
X130.397Y-95.219
X132.937Y-64.739
X132.937Y-69.946
X132.937Y-90.266
X132.937Y-95.219
X135.477Y-64.739
X135.477Y-69.946
X135.477Y-90.266
X135.477Y-95.219
X138.017Y-64.739
X138.017Y-69.946
X138.017Y-90.266
X138.017Y-95.219
X140.557Y-64.739
X140.557Y-69.946
X140.557Y-90.266
X140.557Y-95.219
X143.097Y-64.739
X143.097Y-69.946
X143.097Y-90.266
X143.097Y-95.219
X145.637Y-64.739
X145.637Y-69.946
X145.637Y-90.266
X145.637Y-95.219
X148.177Y-64.739
X148.177Y-69.946
X148.177Y-90.266
X148.177Y-95.219
X159.035Y-59.786
X159.035Y-62.326
X159.035Y-64.866
X159.035Y-67.406
X159.035Y-69.946
X161.576Y-59.786
X161.576Y-62.326
X161.576Y-64.866
X161.576Y-67.406
X161.576Y-69.946
T4
X65.405Y-83.82
X65.405Y-88.9
X134.92Y-46.0
X140.0Y-46.0
X150.0Y-46.0
X155.08Y-46.0
X164.92Y-46.0
X165.0Y-125.0
X170.0Y-46.0
X170.08Y-125.0
X179.92Y-46.26
X180.0Y-125.0
X185.0Y-46.26
X185.08Y-125.0
X194.876Y-46.32
X195.1Y-125.0
X199.956Y-46.32
X200.18Y-125.0
X209.92Y-46.26
X210.2Y-125.0
X215.0Y-46.26
X215.28Y-125.0
X224.12Y-46.26
X225.2Y-125.02
X229.2Y-46.26
X230.28Y-125.02
T5
X61.0Y-44.0
X167.0Y-113.0
X228.0Y-81.0
T3
X83.0Y-119.5G85X83.0Y-118.5
G05
X155.0Y-119.5G85X155.0Y-118.5
G05
T0
M30
