G04 #@! TF.GenerationSoftware,KiCad,Pcbnew,(5.1.9)-1*
G04 #@! TF.CreationDate,2021-06-14T16:42:46+02:00*
G04 #@! TF.ProjectId,Test,54657374-2e6b-4696-9361-645f70636258,rev?*
G04 #@! TF.SameCoordinates,Original*
G04 #@! TF.FileFunction,Soldermask,Top*
G04 #@! TF.FilePolarity,Negative*
%FSLAX46Y46*%
G04 Gerber Fmt 4.6, Leading zero omitted, Abs format (unit mm)*
G04 Created by KiCad (PCBNEW (5.1.9)-1) date 2021-06-14 16:42:46*
%MOMM*%
%LPD*%
G01*
G04 APERTURE LIST*
%ADD10O,2.000000X3.000000*%
%ADD11C,1.524000*%
%ADD12O,1.700000X1.700000*%
%ADD13R,1.700000X1.700000*%
%ADD14C,2.600000*%
%ADD15R,2.600000X2.600000*%
%ADD16R,1.300000X1.300000*%
%ADD17R,1.300000X2.000000*%
%ADD18C,2.000000*%
%ADD19R,0.900000X0.800000*%
%ADD20R,0.800000X0.900000*%
%ADD21C,6.400000*%
G04 APERTURE END LIST*
G36*
G01*
X147939500Y-59576000D02*
X148414500Y-59576000D01*
G75*
G02*
X148652000Y-59813500I0J-237500D01*
G01*
X148652000Y-60313500D01*
G75*
G02*
X148414500Y-60551000I-237500J0D01*
G01*
X147939500Y-60551000D01*
G75*
G02*
X147702000Y-60313500I0J237500D01*
G01*
X147702000Y-59813500D01*
G75*
G02*
X147939500Y-59576000I237500J0D01*
G01*
G37*
G36*
G01*
X147939500Y-57751000D02*
X148414500Y-57751000D01*
G75*
G02*
X148652000Y-57988500I0J-237500D01*
G01*
X148652000Y-58488500D01*
G75*
G02*
X148414500Y-58726000I-237500J0D01*
G01*
X147939500Y-58726000D01*
G75*
G02*
X147702000Y-58488500I0J237500D01*
G01*
X147702000Y-57988500D01*
G75*
G02*
X147939500Y-57751000I237500J0D01*
G01*
G37*
G36*
G01*
X145399500Y-59576000D02*
X145874500Y-59576000D01*
G75*
G02*
X146112000Y-59813500I0J-237500D01*
G01*
X146112000Y-60313500D01*
G75*
G02*
X145874500Y-60551000I-237500J0D01*
G01*
X145399500Y-60551000D01*
G75*
G02*
X145162000Y-60313500I0J237500D01*
G01*
X145162000Y-59813500D01*
G75*
G02*
X145399500Y-59576000I237500J0D01*
G01*
G37*
G36*
G01*
X145399500Y-57751000D02*
X145874500Y-57751000D01*
G75*
G02*
X146112000Y-57988500I0J-237500D01*
G01*
X146112000Y-58488500D01*
G75*
G02*
X145874500Y-58726000I-237500J0D01*
G01*
X145399500Y-58726000D01*
G75*
G02*
X145162000Y-58488500I0J237500D01*
G01*
X145162000Y-57988500D01*
G75*
G02*
X145399500Y-57751000I237500J0D01*
G01*
G37*
G36*
G01*
X142859500Y-59576000D02*
X143334500Y-59576000D01*
G75*
G02*
X143572000Y-59813500I0J-237500D01*
G01*
X143572000Y-60313500D01*
G75*
G02*
X143334500Y-60551000I-237500J0D01*
G01*
X142859500Y-60551000D01*
G75*
G02*
X142622000Y-60313500I0J237500D01*
G01*
X142622000Y-59813500D01*
G75*
G02*
X142859500Y-59576000I237500J0D01*
G01*
G37*
G36*
G01*
X142859500Y-57751000D02*
X143334500Y-57751000D01*
G75*
G02*
X143572000Y-57988500I0J-237500D01*
G01*
X143572000Y-58488500D01*
G75*
G02*
X143334500Y-58726000I-237500J0D01*
G01*
X142859500Y-58726000D01*
G75*
G02*
X142622000Y-58488500I0J237500D01*
G01*
X142622000Y-57988500D01*
G75*
G02*
X142859500Y-57751000I237500J0D01*
G01*
G37*
G36*
G01*
X140319500Y-59576000D02*
X140794500Y-59576000D01*
G75*
G02*
X141032000Y-59813500I0J-237500D01*
G01*
X141032000Y-60313500D01*
G75*
G02*
X140794500Y-60551000I-237500J0D01*
G01*
X140319500Y-60551000D01*
G75*
G02*
X140082000Y-60313500I0J237500D01*
G01*
X140082000Y-59813500D01*
G75*
G02*
X140319500Y-59576000I237500J0D01*
G01*
G37*
G36*
G01*
X140319500Y-57751000D02*
X140794500Y-57751000D01*
G75*
G02*
X141032000Y-57988500I0J-237500D01*
G01*
X141032000Y-58488500D01*
G75*
G02*
X140794500Y-58726000I-237500J0D01*
G01*
X140319500Y-58726000D01*
G75*
G02*
X140082000Y-58488500I0J237500D01*
G01*
X140082000Y-57988500D01*
G75*
G02*
X140319500Y-57751000I237500J0D01*
G01*
G37*
G36*
G01*
X137779500Y-59576000D02*
X138254500Y-59576000D01*
G75*
G02*
X138492000Y-59813500I0J-237500D01*
G01*
X138492000Y-60313500D01*
G75*
G02*
X138254500Y-60551000I-237500J0D01*
G01*
X137779500Y-60551000D01*
G75*
G02*
X137542000Y-60313500I0J237500D01*
G01*
X137542000Y-59813500D01*
G75*
G02*
X137779500Y-59576000I237500J0D01*
G01*
G37*
G36*
G01*
X137779500Y-57751000D02*
X138254500Y-57751000D01*
G75*
G02*
X138492000Y-57988500I0J-237500D01*
G01*
X138492000Y-58488500D01*
G75*
G02*
X138254500Y-58726000I-237500J0D01*
G01*
X137779500Y-58726000D01*
G75*
G02*
X137542000Y-58488500I0J237500D01*
G01*
X137542000Y-57988500D01*
G75*
G02*
X137779500Y-57751000I237500J0D01*
G01*
G37*
G36*
G01*
X135239500Y-59576000D02*
X135714500Y-59576000D01*
G75*
G02*
X135952000Y-59813500I0J-237500D01*
G01*
X135952000Y-60313500D01*
G75*
G02*
X135714500Y-60551000I-237500J0D01*
G01*
X135239500Y-60551000D01*
G75*
G02*
X135002000Y-60313500I0J237500D01*
G01*
X135002000Y-59813500D01*
G75*
G02*
X135239500Y-59576000I237500J0D01*
G01*
G37*
G36*
G01*
X135239500Y-57751000D02*
X135714500Y-57751000D01*
G75*
G02*
X135952000Y-57988500I0J-237500D01*
G01*
X135952000Y-58488500D01*
G75*
G02*
X135714500Y-58726000I-237500J0D01*
G01*
X135239500Y-58726000D01*
G75*
G02*
X135002000Y-58488500I0J237500D01*
G01*
X135002000Y-57988500D01*
G75*
G02*
X135239500Y-57751000I237500J0D01*
G01*
G37*
G36*
G01*
X132699500Y-59576000D02*
X133174500Y-59576000D01*
G75*
G02*
X133412000Y-59813500I0J-237500D01*
G01*
X133412000Y-60313500D01*
G75*
G02*
X133174500Y-60551000I-237500J0D01*
G01*
X132699500Y-60551000D01*
G75*
G02*
X132462000Y-60313500I0J237500D01*
G01*
X132462000Y-59813500D01*
G75*
G02*
X132699500Y-59576000I237500J0D01*
G01*
G37*
G36*
G01*
X132699500Y-57751000D02*
X133174500Y-57751000D01*
G75*
G02*
X133412000Y-57988500I0J-237500D01*
G01*
X133412000Y-58488500D01*
G75*
G02*
X133174500Y-58726000I-237500J0D01*
G01*
X132699500Y-58726000D01*
G75*
G02*
X132462000Y-58488500I0J237500D01*
G01*
X132462000Y-57988500D01*
G75*
G02*
X132699500Y-57751000I237500J0D01*
G01*
G37*
G36*
G01*
X130159500Y-59576000D02*
X130634500Y-59576000D01*
G75*
G02*
X130872000Y-59813500I0J-237500D01*
G01*
X130872000Y-60313500D01*
G75*
G02*
X130634500Y-60551000I-237500J0D01*
G01*
X130159500Y-60551000D01*
G75*
G02*
X129922000Y-60313500I0J237500D01*
G01*
X129922000Y-59813500D01*
G75*
G02*
X130159500Y-59576000I237500J0D01*
G01*
G37*
G36*
G01*
X130159500Y-57751000D02*
X130634500Y-57751000D01*
G75*
G02*
X130872000Y-57988500I0J-237500D01*
G01*
X130872000Y-58488500D01*
G75*
G02*
X130634500Y-58726000I-237500J0D01*
G01*
X130159500Y-58726000D01*
G75*
G02*
X129922000Y-58488500I0J237500D01*
G01*
X129922000Y-57988500D01*
G75*
G02*
X130159500Y-57751000I237500J0D01*
G01*
G37*
G36*
G01*
X127619500Y-59576000D02*
X128094500Y-59576000D01*
G75*
G02*
X128332000Y-59813500I0J-237500D01*
G01*
X128332000Y-60313500D01*
G75*
G02*
X128094500Y-60551000I-237500J0D01*
G01*
X127619500Y-60551000D01*
G75*
G02*
X127382000Y-60313500I0J237500D01*
G01*
X127382000Y-59813500D01*
G75*
G02*
X127619500Y-59576000I237500J0D01*
G01*
G37*
G36*
G01*
X127619500Y-57751000D02*
X128094500Y-57751000D01*
G75*
G02*
X128332000Y-57988500I0J-237500D01*
G01*
X128332000Y-58488500D01*
G75*
G02*
X128094500Y-58726000I-237500J0D01*
G01*
X127619500Y-58726000D01*
G75*
G02*
X127382000Y-58488500I0J237500D01*
G01*
X127382000Y-57988500D01*
G75*
G02*
X127619500Y-57751000I237500J0D01*
G01*
G37*
G36*
G01*
X125079500Y-59576000D02*
X125554500Y-59576000D01*
G75*
G02*
X125792000Y-59813500I0J-237500D01*
G01*
X125792000Y-60313500D01*
G75*
G02*
X125554500Y-60551000I-237500J0D01*
G01*
X125079500Y-60551000D01*
G75*
G02*
X124842000Y-60313500I0J237500D01*
G01*
X124842000Y-59813500D01*
G75*
G02*
X125079500Y-59576000I237500J0D01*
G01*
G37*
G36*
G01*
X125079500Y-57751000D02*
X125554500Y-57751000D01*
G75*
G02*
X125792000Y-57988500I0J-237500D01*
G01*
X125792000Y-58488500D01*
G75*
G02*
X125554500Y-58726000I-237500J0D01*
G01*
X125079500Y-58726000D01*
G75*
G02*
X124842000Y-58488500I0J237500D01*
G01*
X124842000Y-57988500D01*
G75*
G02*
X125079500Y-57751000I237500J0D01*
G01*
G37*
G36*
G01*
X122539500Y-59576000D02*
X123014500Y-59576000D01*
G75*
G02*
X123252000Y-59813500I0J-237500D01*
G01*
X123252000Y-60313500D01*
G75*
G02*
X123014500Y-60551000I-237500J0D01*
G01*
X122539500Y-60551000D01*
G75*
G02*
X122302000Y-60313500I0J237500D01*
G01*
X122302000Y-59813500D01*
G75*
G02*
X122539500Y-59576000I237500J0D01*
G01*
G37*
G36*
G01*
X122539500Y-57751000D02*
X123014500Y-57751000D01*
G75*
G02*
X123252000Y-57988500I0J-237500D01*
G01*
X123252000Y-58488500D01*
G75*
G02*
X123014500Y-58726000I-237500J0D01*
G01*
X122539500Y-58726000D01*
G75*
G02*
X122302000Y-58488500I0J237500D01*
G01*
X122302000Y-57988500D01*
G75*
G02*
X122539500Y-57751000I237500J0D01*
G01*
G37*
G36*
G01*
X119999500Y-59576000D02*
X120474500Y-59576000D01*
G75*
G02*
X120712000Y-59813500I0J-237500D01*
G01*
X120712000Y-60313500D01*
G75*
G02*
X120474500Y-60551000I-237500J0D01*
G01*
X119999500Y-60551000D01*
G75*
G02*
X119762000Y-60313500I0J237500D01*
G01*
X119762000Y-59813500D01*
G75*
G02*
X119999500Y-59576000I237500J0D01*
G01*
G37*
G36*
G01*
X119999500Y-57751000D02*
X120474500Y-57751000D01*
G75*
G02*
X120712000Y-57988500I0J-237500D01*
G01*
X120712000Y-58488500D01*
G75*
G02*
X120474500Y-58726000I-237500J0D01*
G01*
X119999500Y-58726000D01*
G75*
G02*
X119762000Y-58488500I0J237500D01*
G01*
X119762000Y-57988500D01*
G75*
G02*
X119999500Y-57751000I237500J0D01*
G01*
G37*
G36*
G01*
X117459500Y-59576000D02*
X117934500Y-59576000D01*
G75*
G02*
X118172000Y-59813500I0J-237500D01*
G01*
X118172000Y-60313500D01*
G75*
G02*
X117934500Y-60551000I-237500J0D01*
G01*
X117459500Y-60551000D01*
G75*
G02*
X117222000Y-60313500I0J237500D01*
G01*
X117222000Y-59813500D01*
G75*
G02*
X117459500Y-59576000I237500J0D01*
G01*
G37*
G36*
G01*
X117459500Y-57751000D02*
X117934500Y-57751000D01*
G75*
G02*
X118172000Y-57988500I0J-237500D01*
G01*
X118172000Y-58488500D01*
G75*
G02*
X117934500Y-58726000I-237500J0D01*
G01*
X117459500Y-58726000D01*
G75*
G02*
X117222000Y-58488500I0J237500D01*
G01*
X117222000Y-57988500D01*
G75*
G02*
X117459500Y-57751000I237500J0D01*
G01*
G37*
G36*
G01*
X114919500Y-59576000D02*
X115394500Y-59576000D01*
G75*
G02*
X115632000Y-59813500I0J-237500D01*
G01*
X115632000Y-60313500D01*
G75*
G02*
X115394500Y-60551000I-237500J0D01*
G01*
X114919500Y-60551000D01*
G75*
G02*
X114682000Y-60313500I0J237500D01*
G01*
X114682000Y-59813500D01*
G75*
G02*
X114919500Y-59576000I237500J0D01*
G01*
G37*
G36*
G01*
X114919500Y-57751000D02*
X115394500Y-57751000D01*
G75*
G02*
X115632000Y-57988500I0J-237500D01*
G01*
X115632000Y-58488500D01*
G75*
G02*
X115394500Y-58726000I-237500J0D01*
G01*
X114919500Y-58726000D01*
G75*
G02*
X114682000Y-58488500I0J237500D01*
G01*
X114682000Y-57988500D01*
G75*
G02*
X114919500Y-57751000I237500J0D01*
G01*
G37*
G36*
G01*
X112379500Y-59576000D02*
X112854500Y-59576000D01*
G75*
G02*
X113092000Y-59813500I0J-237500D01*
G01*
X113092000Y-60313500D01*
G75*
G02*
X112854500Y-60551000I-237500J0D01*
G01*
X112379500Y-60551000D01*
G75*
G02*
X112142000Y-60313500I0J237500D01*
G01*
X112142000Y-59813500D01*
G75*
G02*
X112379500Y-59576000I237500J0D01*
G01*
G37*
G36*
G01*
X112379500Y-57751000D02*
X112854500Y-57751000D01*
G75*
G02*
X113092000Y-57988500I0J-237500D01*
G01*
X113092000Y-58488500D01*
G75*
G02*
X112854500Y-58726000I-237500J0D01*
G01*
X112379500Y-58726000D01*
G75*
G02*
X112142000Y-58488500I0J237500D01*
G01*
X112142000Y-57988500D01*
G75*
G02*
X112379500Y-57751000I237500J0D01*
G01*
G37*
G36*
G01*
X109839500Y-59576000D02*
X110314500Y-59576000D01*
G75*
G02*
X110552000Y-59813500I0J-237500D01*
G01*
X110552000Y-60313500D01*
G75*
G02*
X110314500Y-60551000I-237500J0D01*
G01*
X109839500Y-60551000D01*
G75*
G02*
X109602000Y-60313500I0J237500D01*
G01*
X109602000Y-59813500D01*
G75*
G02*
X109839500Y-59576000I237500J0D01*
G01*
G37*
G36*
G01*
X109839500Y-57751000D02*
X110314500Y-57751000D01*
G75*
G02*
X110552000Y-57988500I0J-237500D01*
G01*
X110552000Y-58488500D01*
G75*
G02*
X110314500Y-58726000I-237500J0D01*
G01*
X109839500Y-58726000D01*
G75*
G02*
X109602000Y-58488500I0J237500D01*
G01*
X109602000Y-57988500D01*
G75*
G02*
X109839500Y-57751000I237500J0D01*
G01*
G37*
G36*
G01*
X107299500Y-59576000D02*
X107774500Y-59576000D01*
G75*
G02*
X108012000Y-59813500I0J-237500D01*
G01*
X108012000Y-60313500D01*
G75*
G02*
X107774500Y-60551000I-237500J0D01*
G01*
X107299500Y-60551000D01*
G75*
G02*
X107062000Y-60313500I0J237500D01*
G01*
X107062000Y-59813500D01*
G75*
G02*
X107299500Y-59576000I237500J0D01*
G01*
G37*
G36*
G01*
X107299500Y-57751000D02*
X107774500Y-57751000D01*
G75*
G02*
X108012000Y-57988500I0J-237500D01*
G01*
X108012000Y-58488500D01*
G75*
G02*
X107774500Y-58726000I-237500J0D01*
G01*
X107299500Y-58726000D01*
G75*
G02*
X107062000Y-58488500I0J237500D01*
G01*
X107062000Y-57988500D01*
G75*
G02*
X107299500Y-57751000I237500J0D01*
G01*
G37*
G36*
G01*
X104759500Y-59576000D02*
X105234500Y-59576000D01*
G75*
G02*
X105472000Y-59813500I0J-237500D01*
G01*
X105472000Y-60313500D01*
G75*
G02*
X105234500Y-60551000I-237500J0D01*
G01*
X104759500Y-60551000D01*
G75*
G02*
X104522000Y-60313500I0J237500D01*
G01*
X104522000Y-59813500D01*
G75*
G02*
X104759500Y-59576000I237500J0D01*
G01*
G37*
G36*
G01*
X104759500Y-57751000D02*
X105234500Y-57751000D01*
G75*
G02*
X105472000Y-57988500I0J-237500D01*
G01*
X105472000Y-58488500D01*
G75*
G02*
X105234500Y-58726000I-237500J0D01*
G01*
X104759500Y-58726000D01*
G75*
G02*
X104522000Y-58488500I0J237500D01*
G01*
X104522000Y-57988500D01*
G75*
G02*
X104759500Y-57751000I237500J0D01*
G01*
G37*
G36*
G01*
X102219500Y-59576000D02*
X102694500Y-59576000D01*
G75*
G02*
X102932000Y-59813500I0J-237500D01*
G01*
X102932000Y-60313500D01*
G75*
G02*
X102694500Y-60551000I-237500J0D01*
G01*
X102219500Y-60551000D01*
G75*
G02*
X101982000Y-60313500I0J237500D01*
G01*
X101982000Y-59813500D01*
G75*
G02*
X102219500Y-59576000I237500J0D01*
G01*
G37*
G36*
G01*
X102219500Y-57751000D02*
X102694500Y-57751000D01*
G75*
G02*
X102932000Y-57988500I0J-237500D01*
G01*
X102932000Y-58488500D01*
G75*
G02*
X102694500Y-58726000I-237500J0D01*
G01*
X102219500Y-58726000D01*
G75*
G02*
X101982000Y-58488500I0J237500D01*
G01*
X101982000Y-57988500D01*
G75*
G02*
X102219500Y-57751000I237500J0D01*
G01*
G37*
G36*
G01*
X99679500Y-59576000D02*
X100154500Y-59576000D01*
G75*
G02*
X100392000Y-59813500I0J-237500D01*
G01*
X100392000Y-60313500D01*
G75*
G02*
X100154500Y-60551000I-237500J0D01*
G01*
X99679500Y-60551000D01*
G75*
G02*
X99442000Y-60313500I0J237500D01*
G01*
X99442000Y-59813500D01*
G75*
G02*
X99679500Y-59576000I237500J0D01*
G01*
G37*
G36*
G01*
X99679500Y-57751000D02*
X100154500Y-57751000D01*
G75*
G02*
X100392000Y-57988500I0J-237500D01*
G01*
X100392000Y-58488500D01*
G75*
G02*
X100154500Y-58726000I-237500J0D01*
G01*
X99679500Y-58726000D01*
G75*
G02*
X99442000Y-58488500I0J237500D01*
G01*
X99442000Y-57988500D01*
G75*
G02*
X99679500Y-57751000I237500J0D01*
G01*
G37*
G36*
G01*
X97139500Y-59576000D02*
X97614500Y-59576000D01*
G75*
G02*
X97852000Y-59813500I0J-237500D01*
G01*
X97852000Y-60313500D01*
G75*
G02*
X97614500Y-60551000I-237500J0D01*
G01*
X97139500Y-60551000D01*
G75*
G02*
X96902000Y-60313500I0J237500D01*
G01*
X96902000Y-59813500D01*
G75*
G02*
X97139500Y-59576000I237500J0D01*
G01*
G37*
G36*
G01*
X97139500Y-57751000D02*
X97614500Y-57751000D01*
G75*
G02*
X97852000Y-57988500I0J-237500D01*
G01*
X97852000Y-58488500D01*
G75*
G02*
X97614500Y-58726000I-237500J0D01*
G01*
X97139500Y-58726000D01*
G75*
G02*
X96902000Y-58488500I0J237500D01*
G01*
X96902000Y-57988500D01*
G75*
G02*
X97139500Y-57751000I237500J0D01*
G01*
G37*
G36*
G01*
X94599500Y-59576000D02*
X95074500Y-59576000D01*
G75*
G02*
X95312000Y-59813500I0J-237500D01*
G01*
X95312000Y-60313500D01*
G75*
G02*
X95074500Y-60551000I-237500J0D01*
G01*
X94599500Y-60551000D01*
G75*
G02*
X94362000Y-60313500I0J237500D01*
G01*
X94362000Y-59813500D01*
G75*
G02*
X94599500Y-59576000I237500J0D01*
G01*
G37*
G36*
G01*
X94599500Y-57751000D02*
X95074500Y-57751000D01*
G75*
G02*
X95312000Y-57988500I0J-237500D01*
G01*
X95312000Y-58488500D01*
G75*
G02*
X95074500Y-58726000I-237500J0D01*
G01*
X94599500Y-58726000D01*
G75*
G02*
X94362000Y-58488500I0J237500D01*
G01*
X94362000Y-57988500D01*
G75*
G02*
X94599500Y-57751000I237500J0D01*
G01*
G37*
G36*
G01*
X92059500Y-59576000D02*
X92534500Y-59576000D01*
G75*
G02*
X92772000Y-59813500I0J-237500D01*
G01*
X92772000Y-60313500D01*
G75*
G02*
X92534500Y-60551000I-237500J0D01*
G01*
X92059500Y-60551000D01*
G75*
G02*
X91822000Y-60313500I0J237500D01*
G01*
X91822000Y-59813500D01*
G75*
G02*
X92059500Y-59576000I237500J0D01*
G01*
G37*
G36*
G01*
X92059500Y-57751000D02*
X92534500Y-57751000D01*
G75*
G02*
X92772000Y-57988500I0J-237500D01*
G01*
X92772000Y-58488500D01*
G75*
G02*
X92534500Y-58726000I-237500J0D01*
G01*
X92059500Y-58726000D01*
G75*
G02*
X91822000Y-58488500I0J237500D01*
G01*
X91822000Y-57988500D01*
G75*
G02*
X92059500Y-57751000I237500J0D01*
G01*
G37*
G36*
G01*
X89519500Y-59576000D02*
X89994500Y-59576000D01*
G75*
G02*
X90232000Y-59813500I0J-237500D01*
G01*
X90232000Y-60313500D01*
G75*
G02*
X89994500Y-60551000I-237500J0D01*
G01*
X89519500Y-60551000D01*
G75*
G02*
X89282000Y-60313500I0J237500D01*
G01*
X89282000Y-59813500D01*
G75*
G02*
X89519500Y-59576000I237500J0D01*
G01*
G37*
G36*
G01*
X89519500Y-57751000D02*
X89994500Y-57751000D01*
G75*
G02*
X90232000Y-57988500I0J-237500D01*
G01*
X90232000Y-58488500D01*
G75*
G02*
X89994500Y-58726000I-237500J0D01*
G01*
X89519500Y-58726000D01*
G75*
G02*
X89282000Y-58488500I0J237500D01*
G01*
X89282000Y-57988500D01*
G75*
G02*
X89519500Y-57751000I237500J0D01*
G01*
G37*
G36*
G01*
X86979500Y-59576000D02*
X87454500Y-59576000D01*
G75*
G02*
X87692000Y-59813500I0J-237500D01*
G01*
X87692000Y-60313500D01*
G75*
G02*
X87454500Y-60551000I-237500J0D01*
G01*
X86979500Y-60551000D01*
G75*
G02*
X86742000Y-60313500I0J237500D01*
G01*
X86742000Y-59813500D01*
G75*
G02*
X86979500Y-59576000I237500J0D01*
G01*
G37*
G36*
G01*
X86979500Y-57751000D02*
X87454500Y-57751000D01*
G75*
G02*
X87692000Y-57988500I0J-237500D01*
G01*
X87692000Y-58488500D01*
G75*
G02*
X87454500Y-58726000I-237500J0D01*
G01*
X86979500Y-58726000D01*
G75*
G02*
X86742000Y-58488500I0J237500D01*
G01*
X86742000Y-57988500D01*
G75*
G02*
X86979500Y-57751000I237500J0D01*
G01*
G37*
G36*
G01*
X84439500Y-59576000D02*
X84914500Y-59576000D01*
G75*
G02*
X85152000Y-59813500I0J-237500D01*
G01*
X85152000Y-60313500D01*
G75*
G02*
X84914500Y-60551000I-237500J0D01*
G01*
X84439500Y-60551000D01*
G75*
G02*
X84202000Y-60313500I0J237500D01*
G01*
X84202000Y-59813500D01*
G75*
G02*
X84439500Y-59576000I237500J0D01*
G01*
G37*
G36*
G01*
X84439500Y-57751000D02*
X84914500Y-57751000D01*
G75*
G02*
X85152000Y-57988500I0J-237500D01*
G01*
X85152000Y-58488500D01*
G75*
G02*
X84914500Y-58726000I-237500J0D01*
G01*
X84439500Y-58726000D01*
G75*
G02*
X84202000Y-58488500I0J237500D01*
G01*
X84202000Y-57988500D01*
G75*
G02*
X84439500Y-57751000I237500J0D01*
G01*
G37*
G36*
G01*
X147939500Y-101131500D02*
X148414500Y-101131500D01*
G75*
G02*
X148652000Y-101369000I0J-237500D01*
G01*
X148652000Y-101869000D01*
G75*
G02*
X148414500Y-102106500I-237500J0D01*
G01*
X147939500Y-102106500D01*
G75*
G02*
X147702000Y-101869000I0J237500D01*
G01*
X147702000Y-101369000D01*
G75*
G02*
X147939500Y-101131500I237500J0D01*
G01*
G37*
G36*
G01*
X147939500Y-99306500D02*
X148414500Y-99306500D01*
G75*
G02*
X148652000Y-99544000I0J-237500D01*
G01*
X148652000Y-100044000D01*
G75*
G02*
X148414500Y-100281500I-237500J0D01*
G01*
X147939500Y-100281500D01*
G75*
G02*
X147702000Y-100044000I0J237500D01*
G01*
X147702000Y-99544000D01*
G75*
G02*
X147939500Y-99306500I237500J0D01*
G01*
G37*
G36*
G01*
X145399500Y-101131500D02*
X145874500Y-101131500D01*
G75*
G02*
X146112000Y-101369000I0J-237500D01*
G01*
X146112000Y-101869000D01*
G75*
G02*
X145874500Y-102106500I-237500J0D01*
G01*
X145399500Y-102106500D01*
G75*
G02*
X145162000Y-101869000I0J237500D01*
G01*
X145162000Y-101369000D01*
G75*
G02*
X145399500Y-101131500I237500J0D01*
G01*
G37*
G36*
G01*
X145399500Y-99306500D02*
X145874500Y-99306500D01*
G75*
G02*
X146112000Y-99544000I0J-237500D01*
G01*
X146112000Y-100044000D01*
G75*
G02*
X145874500Y-100281500I-237500J0D01*
G01*
X145399500Y-100281500D01*
G75*
G02*
X145162000Y-100044000I0J237500D01*
G01*
X145162000Y-99544000D01*
G75*
G02*
X145399500Y-99306500I237500J0D01*
G01*
G37*
G36*
G01*
X142859500Y-101131500D02*
X143334500Y-101131500D01*
G75*
G02*
X143572000Y-101369000I0J-237500D01*
G01*
X143572000Y-101869000D01*
G75*
G02*
X143334500Y-102106500I-237500J0D01*
G01*
X142859500Y-102106500D01*
G75*
G02*
X142622000Y-101869000I0J237500D01*
G01*
X142622000Y-101369000D01*
G75*
G02*
X142859500Y-101131500I237500J0D01*
G01*
G37*
G36*
G01*
X142859500Y-99306500D02*
X143334500Y-99306500D01*
G75*
G02*
X143572000Y-99544000I0J-237500D01*
G01*
X143572000Y-100044000D01*
G75*
G02*
X143334500Y-100281500I-237500J0D01*
G01*
X142859500Y-100281500D01*
G75*
G02*
X142622000Y-100044000I0J237500D01*
G01*
X142622000Y-99544000D01*
G75*
G02*
X142859500Y-99306500I237500J0D01*
G01*
G37*
G36*
G01*
X140319500Y-101131500D02*
X140794500Y-101131500D01*
G75*
G02*
X141032000Y-101369000I0J-237500D01*
G01*
X141032000Y-101869000D01*
G75*
G02*
X140794500Y-102106500I-237500J0D01*
G01*
X140319500Y-102106500D01*
G75*
G02*
X140082000Y-101869000I0J237500D01*
G01*
X140082000Y-101369000D01*
G75*
G02*
X140319500Y-101131500I237500J0D01*
G01*
G37*
G36*
G01*
X140319500Y-99306500D02*
X140794500Y-99306500D01*
G75*
G02*
X141032000Y-99544000I0J-237500D01*
G01*
X141032000Y-100044000D01*
G75*
G02*
X140794500Y-100281500I-237500J0D01*
G01*
X140319500Y-100281500D01*
G75*
G02*
X140082000Y-100044000I0J237500D01*
G01*
X140082000Y-99544000D01*
G75*
G02*
X140319500Y-99306500I237500J0D01*
G01*
G37*
G36*
G01*
X137779500Y-101131500D02*
X138254500Y-101131500D01*
G75*
G02*
X138492000Y-101369000I0J-237500D01*
G01*
X138492000Y-101869000D01*
G75*
G02*
X138254500Y-102106500I-237500J0D01*
G01*
X137779500Y-102106500D01*
G75*
G02*
X137542000Y-101869000I0J237500D01*
G01*
X137542000Y-101369000D01*
G75*
G02*
X137779500Y-101131500I237500J0D01*
G01*
G37*
G36*
G01*
X137779500Y-99306500D02*
X138254500Y-99306500D01*
G75*
G02*
X138492000Y-99544000I0J-237500D01*
G01*
X138492000Y-100044000D01*
G75*
G02*
X138254500Y-100281500I-237500J0D01*
G01*
X137779500Y-100281500D01*
G75*
G02*
X137542000Y-100044000I0J237500D01*
G01*
X137542000Y-99544000D01*
G75*
G02*
X137779500Y-99306500I237500J0D01*
G01*
G37*
G36*
G01*
X135239500Y-101179000D02*
X135714500Y-101179000D01*
G75*
G02*
X135952000Y-101416500I0J-237500D01*
G01*
X135952000Y-101916500D01*
G75*
G02*
X135714500Y-102154000I-237500J0D01*
G01*
X135239500Y-102154000D01*
G75*
G02*
X135002000Y-101916500I0J237500D01*
G01*
X135002000Y-101416500D01*
G75*
G02*
X135239500Y-101179000I237500J0D01*
G01*
G37*
G36*
G01*
X135239500Y-99354000D02*
X135714500Y-99354000D01*
G75*
G02*
X135952000Y-99591500I0J-237500D01*
G01*
X135952000Y-100091500D01*
G75*
G02*
X135714500Y-100329000I-237500J0D01*
G01*
X135239500Y-100329000D01*
G75*
G02*
X135002000Y-100091500I0J237500D01*
G01*
X135002000Y-99591500D01*
G75*
G02*
X135239500Y-99354000I237500J0D01*
G01*
G37*
G36*
G01*
X132699500Y-101232000D02*
X133174500Y-101232000D01*
G75*
G02*
X133412000Y-101469500I0J-237500D01*
G01*
X133412000Y-101969500D01*
G75*
G02*
X133174500Y-102207000I-237500J0D01*
G01*
X132699500Y-102207000D01*
G75*
G02*
X132462000Y-101969500I0J237500D01*
G01*
X132462000Y-101469500D01*
G75*
G02*
X132699500Y-101232000I237500J0D01*
G01*
G37*
G36*
G01*
X132699500Y-99407000D02*
X133174500Y-99407000D01*
G75*
G02*
X133412000Y-99644500I0J-237500D01*
G01*
X133412000Y-100144500D01*
G75*
G02*
X133174500Y-100382000I-237500J0D01*
G01*
X132699500Y-100382000D01*
G75*
G02*
X132462000Y-100144500I0J237500D01*
G01*
X132462000Y-99644500D01*
G75*
G02*
X132699500Y-99407000I237500J0D01*
G01*
G37*
G36*
G01*
X130159500Y-101232000D02*
X130634500Y-101232000D01*
G75*
G02*
X130872000Y-101469500I0J-237500D01*
G01*
X130872000Y-101969500D01*
G75*
G02*
X130634500Y-102207000I-237500J0D01*
G01*
X130159500Y-102207000D01*
G75*
G02*
X129922000Y-101969500I0J237500D01*
G01*
X129922000Y-101469500D01*
G75*
G02*
X130159500Y-101232000I237500J0D01*
G01*
G37*
G36*
G01*
X130159500Y-99407000D02*
X130634500Y-99407000D01*
G75*
G02*
X130872000Y-99644500I0J-237500D01*
G01*
X130872000Y-100144500D01*
G75*
G02*
X130634500Y-100382000I-237500J0D01*
G01*
X130159500Y-100382000D01*
G75*
G02*
X129922000Y-100144500I0J237500D01*
G01*
X129922000Y-99644500D01*
G75*
G02*
X130159500Y-99407000I237500J0D01*
G01*
G37*
G36*
G01*
X127619500Y-101232000D02*
X128094500Y-101232000D01*
G75*
G02*
X128332000Y-101469500I0J-237500D01*
G01*
X128332000Y-101969500D01*
G75*
G02*
X128094500Y-102207000I-237500J0D01*
G01*
X127619500Y-102207000D01*
G75*
G02*
X127382000Y-101969500I0J237500D01*
G01*
X127382000Y-101469500D01*
G75*
G02*
X127619500Y-101232000I237500J0D01*
G01*
G37*
G36*
G01*
X127619500Y-99407000D02*
X128094500Y-99407000D01*
G75*
G02*
X128332000Y-99644500I0J-237500D01*
G01*
X128332000Y-100144500D01*
G75*
G02*
X128094500Y-100382000I-237500J0D01*
G01*
X127619500Y-100382000D01*
G75*
G02*
X127382000Y-100144500I0J237500D01*
G01*
X127382000Y-99644500D01*
G75*
G02*
X127619500Y-99407000I237500J0D01*
G01*
G37*
G36*
G01*
X125079500Y-101232000D02*
X125554500Y-101232000D01*
G75*
G02*
X125792000Y-101469500I0J-237500D01*
G01*
X125792000Y-101969500D01*
G75*
G02*
X125554500Y-102207000I-237500J0D01*
G01*
X125079500Y-102207000D01*
G75*
G02*
X124842000Y-101969500I0J237500D01*
G01*
X124842000Y-101469500D01*
G75*
G02*
X125079500Y-101232000I237500J0D01*
G01*
G37*
G36*
G01*
X125079500Y-99407000D02*
X125554500Y-99407000D01*
G75*
G02*
X125792000Y-99644500I0J-237500D01*
G01*
X125792000Y-100144500D01*
G75*
G02*
X125554500Y-100382000I-237500J0D01*
G01*
X125079500Y-100382000D01*
G75*
G02*
X124842000Y-100144500I0J237500D01*
G01*
X124842000Y-99644500D01*
G75*
G02*
X125079500Y-99407000I237500J0D01*
G01*
G37*
G36*
G01*
X122539500Y-101232000D02*
X123014500Y-101232000D01*
G75*
G02*
X123252000Y-101469500I0J-237500D01*
G01*
X123252000Y-101969500D01*
G75*
G02*
X123014500Y-102207000I-237500J0D01*
G01*
X122539500Y-102207000D01*
G75*
G02*
X122302000Y-101969500I0J237500D01*
G01*
X122302000Y-101469500D01*
G75*
G02*
X122539500Y-101232000I237500J0D01*
G01*
G37*
G36*
G01*
X122539500Y-99407000D02*
X123014500Y-99407000D01*
G75*
G02*
X123252000Y-99644500I0J-237500D01*
G01*
X123252000Y-100144500D01*
G75*
G02*
X123014500Y-100382000I-237500J0D01*
G01*
X122539500Y-100382000D01*
G75*
G02*
X122302000Y-100144500I0J237500D01*
G01*
X122302000Y-99644500D01*
G75*
G02*
X122539500Y-99407000I237500J0D01*
G01*
G37*
G36*
G01*
X119999500Y-101232000D02*
X120474500Y-101232000D01*
G75*
G02*
X120712000Y-101469500I0J-237500D01*
G01*
X120712000Y-101969500D01*
G75*
G02*
X120474500Y-102207000I-237500J0D01*
G01*
X119999500Y-102207000D01*
G75*
G02*
X119762000Y-101969500I0J237500D01*
G01*
X119762000Y-101469500D01*
G75*
G02*
X119999500Y-101232000I237500J0D01*
G01*
G37*
G36*
G01*
X119999500Y-99407000D02*
X120474500Y-99407000D01*
G75*
G02*
X120712000Y-99644500I0J-237500D01*
G01*
X120712000Y-100144500D01*
G75*
G02*
X120474500Y-100382000I-237500J0D01*
G01*
X119999500Y-100382000D01*
G75*
G02*
X119762000Y-100144500I0J237500D01*
G01*
X119762000Y-99644500D01*
G75*
G02*
X119999500Y-99407000I237500J0D01*
G01*
G37*
G36*
G01*
X117459500Y-101232000D02*
X117934500Y-101232000D01*
G75*
G02*
X118172000Y-101469500I0J-237500D01*
G01*
X118172000Y-101969500D01*
G75*
G02*
X117934500Y-102207000I-237500J0D01*
G01*
X117459500Y-102207000D01*
G75*
G02*
X117222000Y-101969500I0J237500D01*
G01*
X117222000Y-101469500D01*
G75*
G02*
X117459500Y-101232000I237500J0D01*
G01*
G37*
G36*
G01*
X117459500Y-99407000D02*
X117934500Y-99407000D01*
G75*
G02*
X118172000Y-99644500I0J-237500D01*
G01*
X118172000Y-100144500D01*
G75*
G02*
X117934500Y-100382000I-237500J0D01*
G01*
X117459500Y-100382000D01*
G75*
G02*
X117222000Y-100144500I0J237500D01*
G01*
X117222000Y-99644500D01*
G75*
G02*
X117459500Y-99407000I237500J0D01*
G01*
G37*
G36*
G01*
X114919500Y-101232000D02*
X115394500Y-101232000D01*
G75*
G02*
X115632000Y-101469500I0J-237500D01*
G01*
X115632000Y-101969500D01*
G75*
G02*
X115394500Y-102207000I-237500J0D01*
G01*
X114919500Y-102207000D01*
G75*
G02*
X114682000Y-101969500I0J237500D01*
G01*
X114682000Y-101469500D01*
G75*
G02*
X114919500Y-101232000I237500J0D01*
G01*
G37*
G36*
G01*
X114919500Y-99407000D02*
X115394500Y-99407000D01*
G75*
G02*
X115632000Y-99644500I0J-237500D01*
G01*
X115632000Y-100144500D01*
G75*
G02*
X115394500Y-100382000I-237500J0D01*
G01*
X114919500Y-100382000D01*
G75*
G02*
X114682000Y-100144500I0J237500D01*
G01*
X114682000Y-99644500D01*
G75*
G02*
X114919500Y-99407000I237500J0D01*
G01*
G37*
G36*
G01*
X112379500Y-101232000D02*
X112854500Y-101232000D01*
G75*
G02*
X113092000Y-101469500I0J-237500D01*
G01*
X113092000Y-101969500D01*
G75*
G02*
X112854500Y-102207000I-237500J0D01*
G01*
X112379500Y-102207000D01*
G75*
G02*
X112142000Y-101969500I0J237500D01*
G01*
X112142000Y-101469500D01*
G75*
G02*
X112379500Y-101232000I237500J0D01*
G01*
G37*
G36*
G01*
X112379500Y-99407000D02*
X112854500Y-99407000D01*
G75*
G02*
X113092000Y-99644500I0J-237500D01*
G01*
X113092000Y-100144500D01*
G75*
G02*
X112854500Y-100382000I-237500J0D01*
G01*
X112379500Y-100382000D01*
G75*
G02*
X112142000Y-100144500I0J237500D01*
G01*
X112142000Y-99644500D01*
G75*
G02*
X112379500Y-99407000I237500J0D01*
G01*
G37*
G36*
G01*
X109839500Y-101232000D02*
X110314500Y-101232000D01*
G75*
G02*
X110552000Y-101469500I0J-237500D01*
G01*
X110552000Y-101969500D01*
G75*
G02*
X110314500Y-102207000I-237500J0D01*
G01*
X109839500Y-102207000D01*
G75*
G02*
X109602000Y-101969500I0J237500D01*
G01*
X109602000Y-101469500D01*
G75*
G02*
X109839500Y-101232000I237500J0D01*
G01*
G37*
G36*
G01*
X109839500Y-99407000D02*
X110314500Y-99407000D01*
G75*
G02*
X110552000Y-99644500I0J-237500D01*
G01*
X110552000Y-100144500D01*
G75*
G02*
X110314500Y-100382000I-237500J0D01*
G01*
X109839500Y-100382000D01*
G75*
G02*
X109602000Y-100144500I0J237500D01*
G01*
X109602000Y-99644500D01*
G75*
G02*
X109839500Y-99407000I237500J0D01*
G01*
G37*
G36*
G01*
X107299500Y-101232000D02*
X107774500Y-101232000D01*
G75*
G02*
X108012000Y-101469500I0J-237500D01*
G01*
X108012000Y-101969500D01*
G75*
G02*
X107774500Y-102207000I-237500J0D01*
G01*
X107299500Y-102207000D01*
G75*
G02*
X107062000Y-101969500I0J237500D01*
G01*
X107062000Y-101469500D01*
G75*
G02*
X107299500Y-101232000I237500J0D01*
G01*
G37*
G36*
G01*
X107299500Y-99407000D02*
X107774500Y-99407000D01*
G75*
G02*
X108012000Y-99644500I0J-237500D01*
G01*
X108012000Y-100144500D01*
G75*
G02*
X107774500Y-100382000I-237500J0D01*
G01*
X107299500Y-100382000D01*
G75*
G02*
X107062000Y-100144500I0J237500D01*
G01*
X107062000Y-99644500D01*
G75*
G02*
X107299500Y-99407000I237500J0D01*
G01*
G37*
G36*
G01*
X104759500Y-101232000D02*
X105234500Y-101232000D01*
G75*
G02*
X105472000Y-101469500I0J-237500D01*
G01*
X105472000Y-101969500D01*
G75*
G02*
X105234500Y-102207000I-237500J0D01*
G01*
X104759500Y-102207000D01*
G75*
G02*
X104522000Y-101969500I0J237500D01*
G01*
X104522000Y-101469500D01*
G75*
G02*
X104759500Y-101232000I237500J0D01*
G01*
G37*
G36*
G01*
X104759500Y-99407000D02*
X105234500Y-99407000D01*
G75*
G02*
X105472000Y-99644500I0J-237500D01*
G01*
X105472000Y-100144500D01*
G75*
G02*
X105234500Y-100382000I-237500J0D01*
G01*
X104759500Y-100382000D01*
G75*
G02*
X104522000Y-100144500I0J237500D01*
G01*
X104522000Y-99644500D01*
G75*
G02*
X104759500Y-99407000I237500J0D01*
G01*
G37*
G36*
G01*
X102219500Y-101179000D02*
X102694500Y-101179000D01*
G75*
G02*
X102932000Y-101416500I0J-237500D01*
G01*
X102932000Y-101916500D01*
G75*
G02*
X102694500Y-102154000I-237500J0D01*
G01*
X102219500Y-102154000D01*
G75*
G02*
X101982000Y-101916500I0J237500D01*
G01*
X101982000Y-101416500D01*
G75*
G02*
X102219500Y-101179000I237500J0D01*
G01*
G37*
G36*
G01*
X102219500Y-99354000D02*
X102694500Y-99354000D01*
G75*
G02*
X102932000Y-99591500I0J-237500D01*
G01*
X102932000Y-100091500D01*
G75*
G02*
X102694500Y-100329000I-237500J0D01*
G01*
X102219500Y-100329000D01*
G75*
G02*
X101982000Y-100091500I0J237500D01*
G01*
X101982000Y-99591500D01*
G75*
G02*
X102219500Y-99354000I237500J0D01*
G01*
G37*
G36*
G01*
X99679500Y-101232000D02*
X100154500Y-101232000D01*
G75*
G02*
X100392000Y-101469500I0J-237500D01*
G01*
X100392000Y-101969500D01*
G75*
G02*
X100154500Y-102207000I-237500J0D01*
G01*
X99679500Y-102207000D01*
G75*
G02*
X99442000Y-101969500I0J237500D01*
G01*
X99442000Y-101469500D01*
G75*
G02*
X99679500Y-101232000I237500J0D01*
G01*
G37*
G36*
G01*
X99679500Y-99407000D02*
X100154500Y-99407000D01*
G75*
G02*
X100392000Y-99644500I0J-237500D01*
G01*
X100392000Y-100144500D01*
G75*
G02*
X100154500Y-100382000I-237500J0D01*
G01*
X99679500Y-100382000D01*
G75*
G02*
X99442000Y-100144500I0J237500D01*
G01*
X99442000Y-99644500D01*
G75*
G02*
X99679500Y-99407000I237500J0D01*
G01*
G37*
G36*
G01*
X97139500Y-101232000D02*
X97614500Y-101232000D01*
G75*
G02*
X97852000Y-101469500I0J-237500D01*
G01*
X97852000Y-101969500D01*
G75*
G02*
X97614500Y-102207000I-237500J0D01*
G01*
X97139500Y-102207000D01*
G75*
G02*
X96902000Y-101969500I0J237500D01*
G01*
X96902000Y-101469500D01*
G75*
G02*
X97139500Y-101232000I237500J0D01*
G01*
G37*
G36*
G01*
X97139500Y-99407000D02*
X97614500Y-99407000D01*
G75*
G02*
X97852000Y-99644500I0J-237500D01*
G01*
X97852000Y-100144500D01*
G75*
G02*
X97614500Y-100382000I-237500J0D01*
G01*
X97139500Y-100382000D01*
G75*
G02*
X96902000Y-100144500I0J237500D01*
G01*
X96902000Y-99644500D01*
G75*
G02*
X97139500Y-99407000I237500J0D01*
G01*
G37*
G36*
G01*
X94599500Y-101232000D02*
X95074500Y-101232000D01*
G75*
G02*
X95312000Y-101469500I0J-237500D01*
G01*
X95312000Y-101969500D01*
G75*
G02*
X95074500Y-102207000I-237500J0D01*
G01*
X94599500Y-102207000D01*
G75*
G02*
X94362000Y-101969500I0J237500D01*
G01*
X94362000Y-101469500D01*
G75*
G02*
X94599500Y-101232000I237500J0D01*
G01*
G37*
G36*
G01*
X94599500Y-99407000D02*
X95074500Y-99407000D01*
G75*
G02*
X95312000Y-99644500I0J-237500D01*
G01*
X95312000Y-100144500D01*
G75*
G02*
X95074500Y-100382000I-237500J0D01*
G01*
X94599500Y-100382000D01*
G75*
G02*
X94362000Y-100144500I0J237500D01*
G01*
X94362000Y-99644500D01*
G75*
G02*
X94599500Y-99407000I237500J0D01*
G01*
G37*
G36*
G01*
X92059500Y-101232000D02*
X92534500Y-101232000D01*
G75*
G02*
X92772000Y-101469500I0J-237500D01*
G01*
X92772000Y-101969500D01*
G75*
G02*
X92534500Y-102207000I-237500J0D01*
G01*
X92059500Y-102207000D01*
G75*
G02*
X91822000Y-101969500I0J237500D01*
G01*
X91822000Y-101469500D01*
G75*
G02*
X92059500Y-101232000I237500J0D01*
G01*
G37*
G36*
G01*
X92059500Y-99407000D02*
X92534500Y-99407000D01*
G75*
G02*
X92772000Y-99644500I0J-237500D01*
G01*
X92772000Y-100144500D01*
G75*
G02*
X92534500Y-100382000I-237500J0D01*
G01*
X92059500Y-100382000D01*
G75*
G02*
X91822000Y-100144500I0J237500D01*
G01*
X91822000Y-99644500D01*
G75*
G02*
X92059500Y-99407000I237500J0D01*
G01*
G37*
G36*
G01*
X89519500Y-101232000D02*
X89994500Y-101232000D01*
G75*
G02*
X90232000Y-101469500I0J-237500D01*
G01*
X90232000Y-101969500D01*
G75*
G02*
X89994500Y-102207000I-237500J0D01*
G01*
X89519500Y-102207000D01*
G75*
G02*
X89282000Y-101969500I0J237500D01*
G01*
X89282000Y-101469500D01*
G75*
G02*
X89519500Y-101232000I237500J0D01*
G01*
G37*
G36*
G01*
X89519500Y-99407000D02*
X89994500Y-99407000D01*
G75*
G02*
X90232000Y-99644500I0J-237500D01*
G01*
X90232000Y-100144500D01*
G75*
G02*
X89994500Y-100382000I-237500J0D01*
G01*
X89519500Y-100382000D01*
G75*
G02*
X89282000Y-100144500I0J237500D01*
G01*
X89282000Y-99644500D01*
G75*
G02*
X89519500Y-99407000I237500J0D01*
G01*
G37*
G36*
G01*
X86979500Y-101232000D02*
X87454500Y-101232000D01*
G75*
G02*
X87692000Y-101469500I0J-237500D01*
G01*
X87692000Y-101969500D01*
G75*
G02*
X87454500Y-102207000I-237500J0D01*
G01*
X86979500Y-102207000D01*
G75*
G02*
X86742000Y-101969500I0J237500D01*
G01*
X86742000Y-101469500D01*
G75*
G02*
X86979500Y-101232000I237500J0D01*
G01*
G37*
G36*
G01*
X86979500Y-99407000D02*
X87454500Y-99407000D01*
G75*
G02*
X87692000Y-99644500I0J-237500D01*
G01*
X87692000Y-100144500D01*
G75*
G02*
X87454500Y-100382000I-237500J0D01*
G01*
X86979500Y-100382000D01*
G75*
G02*
X86742000Y-100144500I0J237500D01*
G01*
X86742000Y-99644500D01*
G75*
G02*
X86979500Y-99407000I237500J0D01*
G01*
G37*
G36*
G01*
X84439500Y-101232000D02*
X84914500Y-101232000D01*
G75*
G02*
X85152000Y-101469500I0J-237500D01*
G01*
X85152000Y-101969500D01*
G75*
G02*
X84914500Y-102207000I-237500J0D01*
G01*
X84439500Y-102207000D01*
G75*
G02*
X84202000Y-101969500I0J237500D01*
G01*
X84202000Y-101469500D01*
G75*
G02*
X84439500Y-101232000I237500J0D01*
G01*
G37*
G36*
G01*
X84439500Y-99407000D02*
X84914500Y-99407000D01*
G75*
G02*
X85152000Y-99644500I0J-237500D01*
G01*
X85152000Y-100144500D01*
G75*
G02*
X84914500Y-100382000I-237500J0D01*
G01*
X84439500Y-100382000D01*
G75*
G02*
X84202000Y-100144500I0J237500D01*
G01*
X84202000Y-99644500D01*
G75*
G02*
X84439500Y-99407000I237500J0D01*
G01*
G37*
D10*
X155000000Y-119000000D03*
X83000000Y-119000000D03*
G36*
G01*
X99200000Y-45500000D02*
X101200000Y-45500000D01*
G75*
G02*
X101450000Y-45750000I0J-250000D01*
G01*
X101450000Y-49250000D01*
G75*
G02*
X101200000Y-49500000I-250000J0D01*
G01*
X99200000Y-49500000D01*
G75*
G02*
X98950000Y-49250000I0J250000D01*
G01*
X98950000Y-45750000D01*
G75*
G02*
X99200000Y-45500000I250000J0D01*
G01*
G37*
G36*
G01*
X99200000Y-37500000D02*
X101200000Y-37500000D01*
G75*
G02*
X101450000Y-37750000I0J-250000D01*
G01*
X101450000Y-41250000D01*
G75*
G02*
X101200000Y-41500000I-250000J0D01*
G01*
X99200000Y-41500000D01*
G75*
G02*
X98950000Y-41250000I0J250000D01*
G01*
X98950000Y-37750000D01*
G75*
G02*
X99200000Y-37500000I250000J0D01*
G01*
G37*
D11*
X61905000Y-58540000D03*
X68905000Y-58540000D03*
X71655000Y-76040000D03*
X59155000Y-76040000D03*
D12*
X120745000Y-42260000D03*
X120745000Y-44800000D03*
X118205000Y-42260000D03*
X118205000Y-44800000D03*
X115665000Y-42260000D03*
X115665000Y-44800000D03*
X113125000Y-42260000D03*
X113125000Y-44800000D03*
X110585000Y-42260000D03*
D13*
X110585000Y-44800000D03*
D14*
X65405000Y-88900000D03*
D15*
X65405000Y-83820000D03*
G36*
G01*
X216692500Y-71607500D02*
X216217500Y-71607500D01*
G75*
G02*
X215980000Y-71370000I0J237500D01*
G01*
X215980000Y-70870000D01*
G75*
G02*
X216217500Y-70632500I237500J0D01*
G01*
X216692500Y-70632500D01*
G75*
G02*
X216930000Y-70870000I0J-237500D01*
G01*
X216930000Y-71370000D01*
G75*
G02*
X216692500Y-71607500I-237500J0D01*
G01*
G37*
G36*
G01*
X216692500Y-73432500D02*
X216217500Y-73432500D01*
G75*
G02*
X215980000Y-73195000I0J237500D01*
G01*
X215980000Y-72695000D01*
G75*
G02*
X216217500Y-72457500I237500J0D01*
G01*
X216692500Y-72457500D01*
G75*
G02*
X216930000Y-72695000I0J-237500D01*
G01*
X216930000Y-73195000D01*
G75*
G02*
X216692500Y-73432500I-237500J0D01*
G01*
G37*
D16*
X228905000Y-62230000D03*
D17*
X227755000Y-67730000D03*
D16*
X226605000Y-62230000D03*
X184425000Y-62230000D03*
D17*
X183275000Y-67730000D03*
D16*
X182125000Y-62230000D03*
G36*
G01*
X197198500Y-57829999D02*
X197198500Y-59130001D01*
G75*
G02*
X196948501Y-59380000I-249999J0D01*
G01*
X196123499Y-59380000D01*
G75*
G02*
X195873500Y-59130001I0J249999D01*
G01*
X195873500Y-57829999D01*
G75*
G02*
X196123499Y-57580000I249999J0D01*
G01*
X196948501Y-57580000D01*
G75*
G02*
X197198500Y-57829999I0J-249999D01*
G01*
G37*
G36*
G01*
X200323500Y-57829999D02*
X200323500Y-59130001D01*
G75*
G02*
X200073501Y-59380000I-249999J0D01*
G01*
X199248499Y-59380000D01*
G75*
G02*
X198998500Y-59130001I0J249999D01*
G01*
X198998500Y-57829999D01*
G75*
G02*
X199248499Y-57580000I249999J0D01*
G01*
X200073501Y-57580000D01*
G75*
G02*
X200323500Y-57829999I0J-249999D01*
G01*
G37*
D14*
X150000000Y-46000000D03*
D15*
X155080000Y-46000000D03*
D18*
X74325000Y-132750000D03*
X60325000Y-132750000D03*
X74325000Y-109250000D03*
X71075000Y-109250000D03*
X63575000Y-109250000D03*
X60325000Y-109250000D03*
D19*
X108000000Y-54000000D03*
X110000000Y-53050000D03*
X110000000Y-54950000D03*
G36*
G01*
X65962500Y-100980001D02*
X65962500Y-99679999D01*
G75*
G02*
X66212499Y-99430000I249999J0D01*
G01*
X67037501Y-99430000D01*
G75*
G02*
X67287500Y-99679999I0J-249999D01*
G01*
X67287500Y-100980001D01*
G75*
G02*
X67037501Y-101230000I-249999J0D01*
G01*
X66212499Y-101230000D01*
G75*
G02*
X65962500Y-100980001I0J249999D01*
G01*
G37*
G36*
G01*
X62837500Y-100980001D02*
X62837500Y-99679999D01*
G75*
G02*
X63087499Y-99430000I249999J0D01*
G01*
X63912501Y-99430000D01*
G75*
G02*
X64162500Y-99679999I0J-249999D01*
G01*
X64162500Y-100980001D01*
G75*
G02*
X63912501Y-101230000I-249999J0D01*
G01*
X63087499Y-101230000D01*
G75*
G02*
X62837500Y-100980001I0J249999D01*
G01*
G37*
D14*
X179920000Y-46260000D03*
D15*
X185000000Y-46260000D03*
G36*
G01*
X194611000Y-108594500D02*
X194611000Y-105169500D01*
G75*
G02*
X195148500Y-104632000I537500J0D01*
G01*
X196223500Y-104632000D01*
G75*
G02*
X196761000Y-105169500I0J-537500D01*
G01*
X196761000Y-108594500D01*
G75*
G02*
X196223500Y-109132000I-537500J0D01*
G01*
X195148500Y-109132000D01*
G75*
G02*
X194611000Y-108594500I0J537500D01*
G01*
G37*
G36*
G01*
X198041000Y-108594500D02*
X198041000Y-105169500D01*
G75*
G02*
X198578500Y-104632000I537500J0D01*
G01*
X199653500Y-104632000D01*
G75*
G02*
X200191000Y-105169500I0J-537500D01*
G01*
X200191000Y-108594500D01*
G75*
G02*
X199653500Y-109132000I-537500J0D01*
G01*
X198578500Y-109132000D01*
G75*
G02*
X198041000Y-108594500I0J537500D01*
G01*
G37*
G36*
G01*
X198041000Y-100094500D02*
X198041000Y-96669500D01*
G75*
G02*
X198578500Y-96132000I537500J0D01*
G01*
X199653500Y-96132000D01*
G75*
G02*
X200191000Y-96669500I0J-537500D01*
G01*
X200191000Y-100094500D01*
G75*
G02*
X199653500Y-100632000I-537500J0D01*
G01*
X198578500Y-100632000D01*
G75*
G02*
X198041000Y-100094500I0J537500D01*
G01*
G37*
G36*
G01*
X194611000Y-100094500D02*
X194611000Y-96669500D01*
G75*
G02*
X195148500Y-96132000I537500J0D01*
G01*
X196223500Y-96132000D01*
G75*
G02*
X196761000Y-96669500I0J-537500D01*
G01*
X196761000Y-100094500D01*
G75*
G02*
X196223500Y-100632000I-537500J0D01*
G01*
X195148500Y-100632000D01*
G75*
G02*
X194611000Y-100094500I0J537500D01*
G01*
G37*
G36*
G01*
X224565000Y-108662500D02*
X224565000Y-105237500D01*
G75*
G02*
X225102500Y-104700000I537500J0D01*
G01*
X226177500Y-104700000D01*
G75*
G02*
X226715000Y-105237500I0J-537500D01*
G01*
X226715000Y-108662500D01*
G75*
G02*
X226177500Y-109200000I-537500J0D01*
G01*
X225102500Y-109200000D01*
G75*
G02*
X224565000Y-108662500I0J537500D01*
G01*
G37*
G36*
G01*
X227995000Y-108662500D02*
X227995000Y-105237500D01*
G75*
G02*
X228532500Y-104700000I537500J0D01*
G01*
X229607500Y-104700000D01*
G75*
G02*
X230145000Y-105237500I0J-537500D01*
G01*
X230145000Y-108662500D01*
G75*
G02*
X229607500Y-109200000I-537500J0D01*
G01*
X228532500Y-109200000D01*
G75*
G02*
X227995000Y-108662500I0J537500D01*
G01*
G37*
G36*
G01*
X227995000Y-100162500D02*
X227995000Y-96737500D01*
G75*
G02*
X228532500Y-96200000I537500J0D01*
G01*
X229607500Y-96200000D01*
G75*
G02*
X230145000Y-96737500I0J-537500D01*
G01*
X230145000Y-100162500D01*
G75*
G02*
X229607500Y-100700000I-537500J0D01*
G01*
X228532500Y-100700000D01*
G75*
G02*
X227995000Y-100162500I0J537500D01*
G01*
G37*
G36*
G01*
X224565000Y-100162500D02*
X224565000Y-96737500D01*
G75*
G02*
X225102500Y-96200000I537500J0D01*
G01*
X226177500Y-96200000D01*
G75*
G02*
X226715000Y-96737500I0J-537500D01*
G01*
X226715000Y-100162500D01*
G75*
G02*
X226177500Y-100700000I-537500J0D01*
G01*
X225102500Y-100700000D01*
G75*
G02*
X224565000Y-100162500I0J537500D01*
G01*
G37*
G36*
G01*
X179631000Y-108562500D02*
X179631000Y-105137500D01*
G75*
G02*
X180168500Y-104600000I537500J0D01*
G01*
X181243500Y-104600000D01*
G75*
G02*
X181781000Y-105137500I0J-537500D01*
G01*
X181781000Y-108562500D01*
G75*
G02*
X181243500Y-109100000I-537500J0D01*
G01*
X180168500Y-109100000D01*
G75*
G02*
X179631000Y-108562500I0J537500D01*
G01*
G37*
G36*
G01*
X183061000Y-108562500D02*
X183061000Y-105137500D01*
G75*
G02*
X183598500Y-104600000I537500J0D01*
G01*
X184673500Y-104600000D01*
G75*
G02*
X185211000Y-105137500I0J-537500D01*
G01*
X185211000Y-108562500D01*
G75*
G02*
X184673500Y-109100000I-537500J0D01*
G01*
X183598500Y-109100000D01*
G75*
G02*
X183061000Y-108562500I0J537500D01*
G01*
G37*
G36*
G01*
X183061000Y-100062500D02*
X183061000Y-96637500D01*
G75*
G02*
X183598500Y-96100000I537500J0D01*
G01*
X184673500Y-96100000D01*
G75*
G02*
X185211000Y-96637500I0J-537500D01*
G01*
X185211000Y-100062500D01*
G75*
G02*
X184673500Y-100600000I-537500J0D01*
G01*
X183598500Y-100600000D01*
G75*
G02*
X183061000Y-100062500I0J537500D01*
G01*
G37*
G36*
G01*
X179631000Y-100062500D02*
X179631000Y-96637500D01*
G75*
G02*
X180168500Y-96100000I537500J0D01*
G01*
X181243500Y-96100000D01*
G75*
G02*
X181781000Y-96637500I0J-537500D01*
G01*
X181781000Y-100062500D01*
G75*
G02*
X181243500Y-100600000I-537500J0D01*
G01*
X180168500Y-100600000D01*
G75*
G02*
X179631000Y-100062500I0J537500D01*
G01*
G37*
D14*
X230280000Y-125020000D03*
D15*
X225200000Y-125020000D03*
D12*
X148177000Y-69946000D03*
X145637000Y-69946000D03*
X143097000Y-69946000D03*
X140557000Y-69946000D03*
X138017000Y-69946000D03*
X135477000Y-69946000D03*
X132937000Y-69946000D03*
X130397000Y-69946000D03*
X127857000Y-69946000D03*
X125317000Y-69946000D03*
X122777000Y-69946000D03*
X120237000Y-69946000D03*
X117697000Y-69946000D03*
X115157000Y-69946000D03*
X112617000Y-69946000D03*
X110077000Y-69946000D03*
X107537000Y-69946000D03*
X104997000Y-69946000D03*
X102457000Y-69946000D03*
X99917000Y-69946000D03*
X97377000Y-69946000D03*
X94837000Y-69946000D03*
X92297000Y-69946000D03*
X89757000Y-69946000D03*
X87217000Y-69946000D03*
D13*
X84677000Y-69946000D03*
D12*
X161575500Y-69946000D03*
X159035500Y-69946000D03*
X161575500Y-67406000D03*
X159035500Y-67406000D03*
X161575500Y-64866000D03*
X159035500Y-64866000D03*
X161575500Y-62326000D03*
X159035500Y-62326000D03*
X161575500Y-59786000D03*
D13*
X159035500Y-59786000D03*
G36*
G01*
X181650001Y-89977500D02*
X180349999Y-89977500D01*
G75*
G02*
X180100000Y-89727501I0J249999D01*
G01*
X180100000Y-88902499D01*
G75*
G02*
X180349999Y-88652500I249999J0D01*
G01*
X181650001Y-88652500D01*
G75*
G02*
X181900000Y-88902499I0J-249999D01*
G01*
X181900000Y-89727501D01*
G75*
G02*
X181650001Y-89977500I-249999J0D01*
G01*
G37*
G36*
G01*
X181650001Y-93102500D02*
X180349999Y-93102500D01*
G75*
G02*
X180100000Y-92852501I0J249999D01*
G01*
X180100000Y-92027499D01*
G75*
G02*
X180349999Y-91777500I249999J0D01*
G01*
X181650001Y-91777500D01*
G75*
G02*
X181900000Y-92027499I0J-249999D01*
G01*
X181900000Y-92852501D01*
G75*
G02*
X181650001Y-93102500I-249999J0D01*
G01*
G37*
G36*
G01*
X201168500Y-71667500D02*
X200693500Y-71667500D01*
G75*
G02*
X200456000Y-71430000I0J237500D01*
G01*
X200456000Y-70930000D01*
G75*
G02*
X200693500Y-70692500I237500J0D01*
G01*
X201168500Y-70692500D01*
G75*
G02*
X201406000Y-70930000I0J-237500D01*
G01*
X201406000Y-71430000D01*
G75*
G02*
X201168500Y-71667500I-237500J0D01*
G01*
G37*
G36*
G01*
X201168500Y-73492500D02*
X200693500Y-73492500D01*
G75*
G02*
X200456000Y-73255000I0J237500D01*
G01*
X200456000Y-72755000D01*
G75*
G02*
X200693500Y-72517500I237500J0D01*
G01*
X201168500Y-72517500D01*
G75*
G02*
X201406000Y-72755000I0J-237500D01*
G01*
X201406000Y-73255000D01*
G75*
G02*
X201168500Y-73492500I-237500J0D01*
G01*
G37*
G36*
G01*
X230652500Y-71607500D02*
X230177500Y-71607500D01*
G75*
G02*
X229940000Y-71370000I0J237500D01*
G01*
X229940000Y-70870000D01*
G75*
G02*
X230177500Y-70632500I237500J0D01*
G01*
X230652500Y-70632500D01*
G75*
G02*
X230890000Y-70870000I0J-237500D01*
G01*
X230890000Y-71370000D01*
G75*
G02*
X230652500Y-71607500I-237500J0D01*
G01*
G37*
G36*
G01*
X230652500Y-73432500D02*
X230177500Y-73432500D01*
G75*
G02*
X229940000Y-73195000I0J237500D01*
G01*
X229940000Y-72695000D01*
G75*
G02*
X230177500Y-72457500I237500J0D01*
G01*
X230652500Y-72457500D01*
G75*
G02*
X230890000Y-72695000I0J-237500D01*
G01*
X230890000Y-73195000D01*
G75*
G02*
X230652500Y-73432500I-237500J0D01*
G01*
G37*
G36*
G01*
X185932500Y-71607500D02*
X185457500Y-71607500D01*
G75*
G02*
X185220000Y-71370000I0J237500D01*
G01*
X185220000Y-70870000D01*
G75*
G02*
X185457500Y-70632500I237500J0D01*
G01*
X185932500Y-70632500D01*
G75*
G02*
X186170000Y-70870000I0J-237500D01*
G01*
X186170000Y-71370000D01*
G75*
G02*
X185932500Y-71607500I-237500J0D01*
G01*
G37*
G36*
G01*
X185932500Y-73432500D02*
X185457500Y-73432500D01*
G75*
G02*
X185220000Y-73195000I0J237500D01*
G01*
X185220000Y-72695000D01*
G75*
G02*
X185457500Y-72457500I237500J0D01*
G01*
X185932500Y-72457500D01*
G75*
G02*
X186170000Y-72695000I0J-237500D01*
G01*
X186170000Y-73195000D01*
G75*
G02*
X185932500Y-73432500I-237500J0D01*
G01*
G37*
D16*
X199421000Y-62290000D03*
D17*
X198271000Y-67790000D03*
D16*
X197121000Y-62290000D03*
X214945000Y-62230000D03*
D17*
X213795000Y-67730000D03*
D16*
X212645000Y-62230000D03*
G36*
G01*
X231747500Y-92677500D02*
X231747500Y-92202500D01*
G75*
G02*
X231985000Y-91965000I237500J0D01*
G01*
X232485000Y-91965000D01*
G75*
G02*
X232722500Y-92202500I0J-237500D01*
G01*
X232722500Y-92677500D01*
G75*
G02*
X232485000Y-92915000I-237500J0D01*
G01*
X231985000Y-92915000D01*
G75*
G02*
X231747500Y-92677500I0J237500D01*
G01*
G37*
G36*
G01*
X229922500Y-92677500D02*
X229922500Y-92202500D01*
G75*
G02*
X230160000Y-91965000I237500J0D01*
G01*
X230660000Y-91965000D01*
G75*
G02*
X230897500Y-92202500I0J-237500D01*
G01*
X230897500Y-92677500D01*
G75*
G02*
X230660000Y-92915000I-237500J0D01*
G01*
X230160000Y-92915000D01*
G75*
G02*
X229922500Y-92677500I0J237500D01*
G01*
G37*
G36*
G01*
X200723500Y-92709500D02*
X200723500Y-92234500D01*
G75*
G02*
X200961000Y-91997000I237500J0D01*
G01*
X201461000Y-91997000D01*
G75*
G02*
X201698500Y-92234500I0J-237500D01*
G01*
X201698500Y-92709500D01*
G75*
G02*
X201461000Y-92947000I-237500J0D01*
G01*
X200961000Y-92947000D01*
G75*
G02*
X200723500Y-92709500I0J237500D01*
G01*
G37*
G36*
G01*
X198898500Y-92709500D02*
X198898500Y-92234500D01*
G75*
G02*
X199136000Y-91997000I237500J0D01*
G01*
X199636000Y-91997000D01*
G75*
G02*
X199873500Y-92234500I0J-237500D01*
G01*
X199873500Y-92709500D01*
G75*
G02*
X199636000Y-92947000I-237500J0D01*
G01*
X199136000Y-92947000D01*
G75*
G02*
X198898500Y-92709500I0J237500D01*
G01*
G37*
G36*
G01*
X195613500Y-72517500D02*
X196088500Y-72517500D01*
G75*
G02*
X196326000Y-72755000I0J-237500D01*
G01*
X196326000Y-73255000D01*
G75*
G02*
X196088500Y-73492500I-237500J0D01*
G01*
X195613500Y-73492500D01*
G75*
G02*
X195376000Y-73255000I0J237500D01*
G01*
X195376000Y-72755000D01*
G75*
G02*
X195613500Y-72517500I237500J0D01*
G01*
G37*
G36*
G01*
X195613500Y-70692500D02*
X196088500Y-70692500D01*
G75*
G02*
X196326000Y-70930000I0J-237500D01*
G01*
X196326000Y-71430000D01*
G75*
G02*
X196088500Y-71667500I-237500J0D01*
G01*
X195613500Y-71667500D01*
G75*
G02*
X195376000Y-71430000I0J237500D01*
G01*
X195376000Y-70930000D01*
G75*
G02*
X195613500Y-70692500I237500J0D01*
G01*
G37*
G36*
G01*
X225097500Y-72457500D02*
X225572500Y-72457500D01*
G75*
G02*
X225810000Y-72695000I0J-237500D01*
G01*
X225810000Y-73195000D01*
G75*
G02*
X225572500Y-73432500I-237500J0D01*
G01*
X225097500Y-73432500D01*
G75*
G02*
X224860000Y-73195000I0J237500D01*
G01*
X224860000Y-72695000D01*
G75*
G02*
X225097500Y-72457500I237500J0D01*
G01*
G37*
G36*
G01*
X225097500Y-70632500D02*
X225572500Y-70632500D01*
G75*
G02*
X225810000Y-70870000I0J-237500D01*
G01*
X225810000Y-71370000D01*
G75*
G02*
X225572500Y-71607500I-237500J0D01*
G01*
X225097500Y-71607500D01*
G75*
G02*
X224860000Y-71370000I0J237500D01*
G01*
X224860000Y-70870000D01*
G75*
G02*
X225097500Y-70632500I237500J0D01*
G01*
G37*
G36*
G01*
X211137500Y-72457500D02*
X211612500Y-72457500D01*
G75*
G02*
X211850000Y-72695000I0J-237500D01*
G01*
X211850000Y-73195000D01*
G75*
G02*
X211612500Y-73432500I-237500J0D01*
G01*
X211137500Y-73432500D01*
G75*
G02*
X210900000Y-73195000I0J237500D01*
G01*
X210900000Y-72695000D01*
G75*
G02*
X211137500Y-72457500I237500J0D01*
G01*
G37*
G36*
G01*
X211137500Y-70632500D02*
X211612500Y-70632500D01*
G75*
G02*
X211850000Y-70870000I0J-237500D01*
G01*
X211850000Y-71370000D01*
G75*
G02*
X211612500Y-71607500I-237500J0D01*
G01*
X211137500Y-71607500D01*
G75*
G02*
X210900000Y-71370000I0J237500D01*
G01*
X210900000Y-70870000D01*
G75*
G02*
X211137500Y-70632500I237500J0D01*
G01*
G37*
G36*
G01*
X180377500Y-72457500D02*
X180852500Y-72457500D01*
G75*
G02*
X181090000Y-72695000I0J-237500D01*
G01*
X181090000Y-73195000D01*
G75*
G02*
X180852500Y-73432500I-237500J0D01*
G01*
X180377500Y-73432500D01*
G75*
G02*
X180140000Y-73195000I0J237500D01*
G01*
X180140000Y-72695000D01*
G75*
G02*
X180377500Y-72457500I237500J0D01*
G01*
G37*
G36*
G01*
X180377500Y-70632500D02*
X180852500Y-70632500D01*
G75*
G02*
X181090000Y-70870000I0J-237500D01*
G01*
X181090000Y-71370000D01*
G75*
G02*
X180852500Y-71607500I-237500J0D01*
G01*
X180377500Y-71607500D01*
G75*
G02*
X180140000Y-71370000I0J237500D01*
G01*
X180140000Y-70870000D01*
G75*
G02*
X180377500Y-70632500I237500J0D01*
G01*
G37*
G36*
G01*
X185743500Y-92677500D02*
X185743500Y-92202500D01*
G75*
G02*
X185981000Y-91965000I237500J0D01*
G01*
X186481000Y-91965000D01*
G75*
G02*
X186718500Y-92202500I0J-237500D01*
G01*
X186718500Y-92677500D01*
G75*
G02*
X186481000Y-92915000I-237500J0D01*
G01*
X185981000Y-92915000D01*
G75*
G02*
X185743500Y-92677500I0J237500D01*
G01*
G37*
G36*
G01*
X183918500Y-92677500D02*
X183918500Y-92202500D01*
G75*
G02*
X184156000Y-91965000I237500J0D01*
G01*
X184656000Y-91965000D01*
G75*
G02*
X184893500Y-92202500I0J-237500D01*
G01*
X184893500Y-92677500D01*
G75*
G02*
X184656000Y-92915000I-237500J0D01*
G01*
X184156000Y-92915000D01*
G75*
G02*
X183918500Y-92677500I0J237500D01*
G01*
G37*
G36*
G01*
X216670000Y-92577500D02*
X216670000Y-92102500D01*
G75*
G02*
X216907500Y-91865000I237500J0D01*
G01*
X217407500Y-91865000D01*
G75*
G02*
X217645000Y-92102500I0J-237500D01*
G01*
X217645000Y-92577500D01*
G75*
G02*
X217407500Y-92815000I-237500J0D01*
G01*
X216907500Y-92815000D01*
G75*
G02*
X216670000Y-92577500I0J237500D01*
G01*
G37*
G36*
G01*
X214845000Y-92577500D02*
X214845000Y-92102500D01*
G75*
G02*
X215082500Y-91865000I237500J0D01*
G01*
X215582500Y-91865000D01*
G75*
G02*
X215820000Y-92102500I0J-237500D01*
G01*
X215820000Y-92577500D01*
G75*
G02*
X215582500Y-92815000I-237500J0D01*
G01*
X215082500Y-92815000D01*
G75*
G02*
X214845000Y-92577500I0J237500D01*
G01*
G37*
G36*
G01*
X168575000Y-53762500D02*
X168575000Y-54237500D01*
G75*
G02*
X168337500Y-54475000I-237500J0D01*
G01*
X167837500Y-54475000D01*
G75*
G02*
X167600000Y-54237500I0J237500D01*
G01*
X167600000Y-53762500D01*
G75*
G02*
X167837500Y-53525000I237500J0D01*
G01*
X168337500Y-53525000D01*
G75*
G02*
X168575000Y-53762500I0J-237500D01*
G01*
G37*
G36*
G01*
X170400000Y-53762500D02*
X170400000Y-54237500D01*
G75*
G02*
X170162500Y-54475000I-237500J0D01*
G01*
X169662500Y-54475000D01*
G75*
G02*
X169425000Y-54237500I0J237500D01*
G01*
X169425000Y-53762500D01*
G75*
G02*
X169662500Y-53525000I237500J0D01*
G01*
X170162500Y-53525000D01*
G75*
G02*
X170400000Y-53762500I0J-237500D01*
G01*
G37*
G36*
G01*
X131138500Y-54341500D02*
X131138500Y-54816500D01*
G75*
G02*
X130901000Y-55054000I-237500J0D01*
G01*
X130401000Y-55054000D01*
G75*
G02*
X130163500Y-54816500I0J237500D01*
G01*
X130163500Y-54341500D01*
G75*
G02*
X130401000Y-54104000I237500J0D01*
G01*
X130901000Y-54104000D01*
G75*
G02*
X131138500Y-54341500I0J-237500D01*
G01*
G37*
G36*
G01*
X132963500Y-54341500D02*
X132963500Y-54816500D01*
G75*
G02*
X132726000Y-55054000I-237500J0D01*
G01*
X132226000Y-55054000D01*
G75*
G02*
X131988500Y-54816500I0J237500D01*
G01*
X131988500Y-54341500D01*
G75*
G02*
X132226000Y-54104000I237500J0D01*
G01*
X132726000Y-54104000D01*
G75*
G02*
X132963500Y-54341500I0J-237500D01*
G01*
G37*
G36*
G01*
X209845000Y-108562500D02*
X209845000Y-105137500D01*
G75*
G02*
X210382500Y-104600000I537500J0D01*
G01*
X211457500Y-104600000D01*
G75*
G02*
X211995000Y-105137500I0J-537500D01*
G01*
X211995000Y-108562500D01*
G75*
G02*
X211457500Y-109100000I-537500J0D01*
G01*
X210382500Y-109100000D01*
G75*
G02*
X209845000Y-108562500I0J537500D01*
G01*
G37*
G36*
G01*
X213275000Y-108562500D02*
X213275000Y-105137500D01*
G75*
G02*
X213812500Y-104600000I537500J0D01*
G01*
X214887500Y-104600000D01*
G75*
G02*
X215425000Y-105137500I0J-537500D01*
G01*
X215425000Y-108562500D01*
G75*
G02*
X214887500Y-109100000I-537500J0D01*
G01*
X213812500Y-109100000D01*
G75*
G02*
X213275000Y-108562500I0J537500D01*
G01*
G37*
G36*
G01*
X213275000Y-100062500D02*
X213275000Y-96637500D01*
G75*
G02*
X213812500Y-96100000I537500J0D01*
G01*
X214887500Y-96100000D01*
G75*
G02*
X215425000Y-96637500I0J-537500D01*
G01*
X215425000Y-100062500D01*
G75*
G02*
X214887500Y-100600000I-537500J0D01*
G01*
X213812500Y-100600000D01*
G75*
G02*
X213275000Y-100062500I0J537500D01*
G01*
G37*
G36*
G01*
X209845000Y-100062500D02*
X209845000Y-96637500D01*
G75*
G02*
X210382500Y-96100000I537500J0D01*
G01*
X211457500Y-96100000D01*
G75*
G02*
X211995000Y-96637500I0J-537500D01*
G01*
X211995000Y-100062500D01*
G75*
G02*
X211457500Y-100600000I-537500J0D01*
G01*
X210382500Y-100600000D01*
G75*
G02*
X209845000Y-100062500I0J537500D01*
G01*
G37*
D14*
X200180000Y-125000000D03*
D15*
X195100000Y-125000000D03*
D14*
X194876000Y-46320000D03*
D15*
X199956000Y-46320000D03*
D14*
X224120000Y-46260000D03*
D15*
X229200000Y-46260000D03*
D14*
X209920000Y-46260000D03*
D15*
X215000000Y-46260000D03*
D14*
X185080000Y-125000000D03*
D15*
X180000000Y-125000000D03*
D14*
X215280000Y-125000000D03*
D15*
X210200000Y-125000000D03*
D14*
X164920000Y-46000000D03*
D15*
X170000000Y-46000000D03*
D12*
X148177000Y-64739000D03*
X145637000Y-64739000D03*
X143097000Y-64739000D03*
X140557000Y-64739000D03*
X138017000Y-64739000D03*
X135477000Y-64739000D03*
X132937000Y-64739000D03*
X130397000Y-64739000D03*
X127857000Y-64739000D03*
X125317000Y-64739000D03*
X122777000Y-64739000D03*
X120237000Y-64739000D03*
X117697000Y-64739000D03*
X115157000Y-64739000D03*
X112617000Y-64739000D03*
X110077000Y-64739000D03*
X107537000Y-64739000D03*
X104997000Y-64739000D03*
X102457000Y-64739000D03*
X99917000Y-64739000D03*
X97377000Y-64739000D03*
X94837000Y-64739000D03*
X92297000Y-64739000D03*
X89757000Y-64739000D03*
X87217000Y-64739000D03*
D13*
X84677000Y-64739000D03*
D12*
X148177000Y-90266000D03*
X145637000Y-90266000D03*
X143097000Y-90266000D03*
X140557000Y-90266000D03*
X138017000Y-90266000D03*
X135477000Y-90266000D03*
X132937000Y-90266000D03*
X130397000Y-90266000D03*
X127857000Y-90266000D03*
X125317000Y-90266000D03*
X122777000Y-90266000D03*
X120237000Y-90266000D03*
X117697000Y-90266000D03*
X115157000Y-90266000D03*
X112617000Y-90266000D03*
X110077000Y-90266000D03*
X107537000Y-90266000D03*
X104997000Y-90266000D03*
X102457000Y-90266000D03*
X99917000Y-90266000D03*
X97377000Y-90266000D03*
X94837000Y-90266000D03*
X92297000Y-90266000D03*
X89757000Y-90266000D03*
X87217000Y-90266000D03*
D13*
X84677000Y-90266000D03*
D12*
X148177000Y-95219000D03*
X145637000Y-95219000D03*
X143097000Y-95219000D03*
X140557000Y-95219000D03*
X138017000Y-95219000D03*
X135477000Y-95219000D03*
X132937000Y-95219000D03*
X130397000Y-95219000D03*
X127857000Y-95219000D03*
X125317000Y-95219000D03*
X122777000Y-95219000D03*
X120237000Y-95219000D03*
X117697000Y-95219000D03*
X115157000Y-95219000D03*
X112617000Y-95219000D03*
X110077000Y-95219000D03*
X107537000Y-95219000D03*
X104997000Y-95219000D03*
X102457000Y-95219000D03*
X99917000Y-95219000D03*
X97377000Y-95219000D03*
X94837000Y-95219000D03*
X92297000Y-95219000D03*
X89757000Y-95219000D03*
X87217000Y-95219000D03*
D13*
X84677000Y-95219000D03*
D12*
X66040000Y-95885000D03*
D13*
X63500000Y-95885000D03*
D14*
X134920000Y-46000000D03*
D15*
X140000000Y-46000000D03*
D14*
X170080000Y-125000000D03*
D15*
X165000000Y-125000000D03*
G36*
G01*
X226682500Y-57769999D02*
X226682500Y-59070001D01*
G75*
G02*
X226432501Y-59320000I-249999J0D01*
G01*
X225607499Y-59320000D01*
G75*
G02*
X225357500Y-59070001I0J249999D01*
G01*
X225357500Y-57769999D01*
G75*
G02*
X225607499Y-57520000I249999J0D01*
G01*
X226432501Y-57520000D01*
G75*
G02*
X226682500Y-57769999I0J-249999D01*
G01*
G37*
G36*
G01*
X229807500Y-57769999D02*
X229807500Y-59070001D01*
G75*
G02*
X229557501Y-59320000I-249999J0D01*
G01*
X228732499Y-59320000D01*
G75*
G02*
X228482500Y-59070001I0J249999D01*
G01*
X228482500Y-57769999D01*
G75*
G02*
X228732499Y-57520000I249999J0D01*
G01*
X229557501Y-57520000D01*
G75*
G02*
X229807500Y-57769999I0J-249999D01*
G01*
G37*
G36*
G01*
X212722500Y-57769999D02*
X212722500Y-59070001D01*
G75*
G02*
X212472501Y-59320000I-249999J0D01*
G01*
X211647499Y-59320000D01*
G75*
G02*
X211397500Y-59070001I0J249999D01*
G01*
X211397500Y-57769999D01*
G75*
G02*
X211647499Y-57520000I249999J0D01*
G01*
X212472501Y-57520000D01*
G75*
G02*
X212722500Y-57769999I0J-249999D01*
G01*
G37*
G36*
G01*
X215847500Y-57769999D02*
X215847500Y-59070001D01*
G75*
G02*
X215597501Y-59320000I-249999J0D01*
G01*
X214772499Y-59320000D01*
G75*
G02*
X214522500Y-59070001I0J249999D01*
G01*
X214522500Y-57769999D01*
G75*
G02*
X214772499Y-57520000I249999J0D01*
G01*
X215597501Y-57520000D01*
G75*
G02*
X215847500Y-57769999I0J-249999D01*
G01*
G37*
G36*
G01*
X182547500Y-57769999D02*
X182547500Y-59070001D01*
G75*
G02*
X182297501Y-59320000I-249999J0D01*
G01*
X181472499Y-59320000D01*
G75*
G02*
X181222500Y-59070001I0J249999D01*
G01*
X181222500Y-57769999D01*
G75*
G02*
X181472499Y-57520000I249999J0D01*
G01*
X182297501Y-57520000D01*
G75*
G02*
X182547500Y-57769999I0J-249999D01*
G01*
G37*
G36*
G01*
X185672500Y-57769999D02*
X185672500Y-59070001D01*
G75*
G02*
X185422501Y-59320000I-249999J0D01*
G01*
X184597499Y-59320000D01*
G75*
G02*
X184347500Y-59070001I0J249999D01*
G01*
X184347500Y-57769999D01*
G75*
G02*
X184597499Y-57520000I249999J0D01*
G01*
X185422501Y-57520000D01*
G75*
G02*
X185672500Y-57769999I0J-249999D01*
G01*
G37*
G36*
G01*
X227662500Y-113510001D02*
X227662500Y-112209999D01*
G75*
G02*
X227912499Y-111960000I249999J0D01*
G01*
X228737501Y-111960000D01*
G75*
G02*
X228987500Y-112209999I0J-249999D01*
G01*
X228987500Y-113510001D01*
G75*
G02*
X228737501Y-113760000I-249999J0D01*
G01*
X227912499Y-113760000D01*
G75*
G02*
X227662500Y-113510001I0J249999D01*
G01*
G37*
G36*
G01*
X224537500Y-113510001D02*
X224537500Y-112209999D01*
G75*
G02*
X224787499Y-111960000I249999J0D01*
G01*
X225612501Y-111960000D01*
G75*
G02*
X225862500Y-112209999I0J-249999D01*
G01*
X225862500Y-113510001D01*
G75*
G02*
X225612501Y-113760000I-249999J0D01*
G01*
X224787499Y-113760000D01*
G75*
G02*
X224537500Y-113510001I0J249999D01*
G01*
G37*
G36*
G01*
X197562500Y-113426001D02*
X197562500Y-112125999D01*
G75*
G02*
X197812499Y-111876000I249999J0D01*
G01*
X198637501Y-111876000D01*
G75*
G02*
X198887500Y-112125999I0J-249999D01*
G01*
X198887500Y-113426001D01*
G75*
G02*
X198637501Y-113676000I-249999J0D01*
G01*
X197812499Y-113676000D01*
G75*
G02*
X197562500Y-113426001I0J249999D01*
G01*
G37*
G36*
G01*
X194437500Y-113426001D02*
X194437500Y-112125999D01*
G75*
G02*
X194687499Y-111876000I249999J0D01*
G01*
X195512501Y-111876000D01*
G75*
G02*
X195762500Y-112125999I0J-249999D01*
G01*
X195762500Y-113426001D01*
G75*
G02*
X195512501Y-113676000I-249999J0D01*
G01*
X194687499Y-113676000D01*
G75*
G02*
X194437500Y-113426001I0J249999D01*
G01*
G37*
G36*
G01*
X225650001Y-89977500D02*
X224349999Y-89977500D01*
G75*
G02*
X224100000Y-89727501I0J249999D01*
G01*
X224100000Y-88902499D01*
G75*
G02*
X224349999Y-88652500I249999J0D01*
G01*
X225650001Y-88652500D01*
G75*
G02*
X225900000Y-88902499I0J-249999D01*
G01*
X225900000Y-89727501D01*
G75*
G02*
X225650001Y-89977500I-249999J0D01*
G01*
G37*
G36*
G01*
X225650001Y-93102500D02*
X224349999Y-93102500D01*
G75*
G02*
X224100000Y-92852501I0J249999D01*
G01*
X224100000Y-92027499D01*
G75*
G02*
X224349999Y-91777500I249999J0D01*
G01*
X225650001Y-91777500D01*
G75*
G02*
X225900000Y-92027499I0J-249999D01*
G01*
X225900000Y-92852501D01*
G75*
G02*
X225650001Y-93102500I-249999J0D01*
G01*
G37*
G36*
G01*
X195511001Y-90009500D02*
X194210999Y-90009500D01*
G75*
G02*
X193961000Y-89759501I0J249999D01*
G01*
X193961000Y-88934499D01*
G75*
G02*
X194210999Y-88684500I249999J0D01*
G01*
X195511001Y-88684500D01*
G75*
G02*
X195761000Y-88934499I0J-249999D01*
G01*
X195761000Y-89759501D01*
G75*
G02*
X195511001Y-90009500I-249999J0D01*
G01*
G37*
G36*
G01*
X195511001Y-93134500D02*
X194210999Y-93134500D01*
G75*
G02*
X193961000Y-92884501I0J249999D01*
G01*
X193961000Y-92059499D01*
G75*
G02*
X194210999Y-91809500I249999J0D01*
G01*
X195511001Y-91809500D01*
G75*
G02*
X195761000Y-92059499I0J-249999D01*
G01*
X195761000Y-92884501D01*
G75*
G02*
X195511001Y-93134500I-249999J0D01*
G01*
G37*
G36*
G01*
X182788500Y-113650001D02*
X182788500Y-112349999D01*
G75*
G02*
X183038499Y-112100000I249999J0D01*
G01*
X183863501Y-112100000D01*
G75*
G02*
X184113500Y-112349999I0J-249999D01*
G01*
X184113500Y-113650001D01*
G75*
G02*
X183863501Y-113900000I-249999J0D01*
G01*
X183038499Y-113900000D01*
G75*
G02*
X182788500Y-113650001I0J249999D01*
G01*
G37*
G36*
G01*
X179663500Y-113650001D02*
X179663500Y-112349999D01*
G75*
G02*
X179913499Y-112100000I249999J0D01*
G01*
X180738501Y-112100000D01*
G75*
G02*
X180988500Y-112349999I0J-249999D01*
G01*
X180988500Y-113650001D01*
G75*
G02*
X180738501Y-113900000I-249999J0D01*
G01*
X179913499Y-113900000D01*
G75*
G02*
X179663500Y-113650001I0J249999D01*
G01*
G37*
G36*
G01*
X213242500Y-113410001D02*
X213242500Y-112109999D01*
G75*
G02*
X213492499Y-111860000I249999J0D01*
G01*
X214317501Y-111860000D01*
G75*
G02*
X214567500Y-112109999I0J-249999D01*
G01*
X214567500Y-113410001D01*
G75*
G02*
X214317501Y-113660000I-249999J0D01*
G01*
X213492499Y-113660000D01*
G75*
G02*
X213242500Y-113410001I0J249999D01*
G01*
G37*
G36*
G01*
X210117500Y-113410001D02*
X210117500Y-112109999D01*
G75*
G02*
X210367499Y-111860000I249999J0D01*
G01*
X211192501Y-111860000D01*
G75*
G02*
X211442500Y-112109999I0J-249999D01*
G01*
X211442500Y-113410001D01*
G75*
G02*
X211192501Y-113660000I-249999J0D01*
G01*
X210367499Y-113660000D01*
G75*
G02*
X210117500Y-113410001I0J249999D01*
G01*
G37*
G36*
G01*
X211815001Y-89877500D02*
X210514999Y-89877500D01*
G75*
G02*
X210265000Y-89627501I0J249999D01*
G01*
X210265000Y-88802499D01*
G75*
G02*
X210514999Y-88552500I249999J0D01*
G01*
X211815001Y-88552500D01*
G75*
G02*
X212065000Y-88802499I0J-249999D01*
G01*
X212065000Y-89627501D01*
G75*
G02*
X211815001Y-89877500I-249999J0D01*
G01*
G37*
G36*
G01*
X211815001Y-93002500D02*
X210514999Y-93002500D01*
G75*
G02*
X210265000Y-92752501I0J249999D01*
G01*
X210265000Y-91927499D01*
G75*
G02*
X210514999Y-91677500I249999J0D01*
G01*
X211815001Y-91677500D01*
G75*
G02*
X212065000Y-91927499I0J-249999D01*
G01*
X212065000Y-92752501D01*
G75*
G02*
X211815001Y-93002500I-249999J0D01*
G01*
G37*
G36*
G01*
X86377500Y-56880001D02*
X86377500Y-55579999D01*
G75*
G02*
X86627499Y-55330000I249999J0D01*
G01*
X87452501Y-55330000D01*
G75*
G02*
X87702500Y-55579999I0J-249999D01*
G01*
X87702500Y-56880001D01*
G75*
G02*
X87452501Y-57130000I-249999J0D01*
G01*
X86627499Y-57130000D01*
G75*
G02*
X86377500Y-56880001I0J249999D01*
G01*
G37*
G36*
G01*
X83252500Y-56880001D02*
X83252500Y-55579999D01*
G75*
G02*
X83502499Y-55330000I249999J0D01*
G01*
X84327501Y-55330000D01*
G75*
G02*
X84577500Y-55579999I0J-249999D01*
G01*
X84577500Y-56880001D01*
G75*
G02*
X84327501Y-57130000I-249999J0D01*
G01*
X83502499Y-57130000D01*
G75*
G02*
X83252500Y-56880001I0J249999D01*
G01*
G37*
G36*
G01*
X85200000Y-45500000D02*
X87200000Y-45500000D01*
G75*
G02*
X87450000Y-45750000I0J-250000D01*
G01*
X87450000Y-49250000D01*
G75*
G02*
X87200000Y-49500000I-250000J0D01*
G01*
X85200000Y-49500000D01*
G75*
G02*
X84950000Y-49250000I0J250000D01*
G01*
X84950000Y-45750000D01*
G75*
G02*
X85200000Y-45500000I250000J0D01*
G01*
G37*
G36*
G01*
X85200000Y-37500000D02*
X87200000Y-37500000D01*
G75*
G02*
X87450000Y-37750000I0J-250000D01*
G01*
X87450000Y-41250000D01*
G75*
G02*
X87200000Y-41500000I-250000J0D01*
G01*
X85200000Y-41500000D01*
G75*
G02*
X84950000Y-41250000I0J250000D01*
G01*
X84950000Y-37750000D01*
G75*
G02*
X85200000Y-37500000I250000J0D01*
G01*
G37*
G36*
G01*
X71200000Y-45500000D02*
X73200000Y-45500000D01*
G75*
G02*
X73450000Y-45750000I0J-250000D01*
G01*
X73450000Y-49250000D01*
G75*
G02*
X73200000Y-49500000I-250000J0D01*
G01*
X71200000Y-49500000D01*
G75*
G02*
X70950000Y-49250000I0J250000D01*
G01*
X70950000Y-45750000D01*
G75*
G02*
X71200000Y-45500000I250000J0D01*
G01*
G37*
G36*
G01*
X71200000Y-37500000D02*
X73200000Y-37500000D01*
G75*
G02*
X73450000Y-37750000I0J-250000D01*
G01*
X73450000Y-41250000D01*
G75*
G02*
X73200000Y-41500000I-250000J0D01*
G01*
X71200000Y-41500000D01*
G75*
G02*
X70950000Y-41250000I0J250000D01*
G01*
X70950000Y-37750000D01*
G75*
G02*
X71200000Y-37500000I250000J0D01*
G01*
G37*
G36*
G01*
X148022500Y-105140001D02*
X148022500Y-103839999D01*
G75*
G02*
X148272499Y-103590000I249999J0D01*
G01*
X149097501Y-103590000D01*
G75*
G02*
X149347500Y-103839999I0J-249999D01*
G01*
X149347500Y-105140001D01*
G75*
G02*
X149097501Y-105390000I-249999J0D01*
G01*
X148272499Y-105390000D01*
G75*
G02*
X148022500Y-105140001I0J249999D01*
G01*
G37*
G36*
G01*
X144897500Y-105140001D02*
X144897500Y-103839999D01*
G75*
G02*
X145147499Y-103590000I249999J0D01*
G01*
X145972501Y-103590000D01*
G75*
G02*
X146222500Y-103839999I0J-249999D01*
G01*
X146222500Y-105140001D01*
G75*
G02*
X145972501Y-105390000I-249999J0D01*
G01*
X145147499Y-105390000D01*
G75*
G02*
X144897500Y-105140001I0J249999D01*
G01*
G37*
G36*
G01*
X133860500Y-55229001D02*
X133860500Y-53928999D01*
G75*
G02*
X134110499Y-53679000I249999J0D01*
G01*
X134935501Y-53679000D01*
G75*
G02*
X135185500Y-53928999I0J-249999D01*
G01*
X135185500Y-55229001D01*
G75*
G02*
X134935501Y-55479000I-249999J0D01*
G01*
X134110499Y-55479000D01*
G75*
G02*
X133860500Y-55229001I0J249999D01*
G01*
G37*
G36*
G01*
X136985500Y-55229001D02*
X136985500Y-53928999D01*
G75*
G02*
X137235499Y-53679000I249999J0D01*
G01*
X138060501Y-53679000D01*
G75*
G02*
X138310500Y-53928999I0J-249999D01*
G01*
X138310500Y-55229001D01*
G75*
G02*
X138060501Y-55479000I-249999J0D01*
G01*
X137235499Y-55479000D01*
G75*
G02*
X136985500Y-55229001I0J249999D01*
G01*
G37*
G36*
G01*
X128666001Y-51970500D02*
X127365999Y-51970500D01*
G75*
G02*
X127116000Y-51720501I0J249999D01*
G01*
X127116000Y-50895499D01*
G75*
G02*
X127365999Y-50645500I249999J0D01*
G01*
X128666001Y-50645500D01*
G75*
G02*
X128916000Y-50895499I0J-249999D01*
G01*
X128916000Y-51720501D01*
G75*
G02*
X128666001Y-51970500I-249999J0D01*
G01*
G37*
G36*
G01*
X128666001Y-55095500D02*
X127365999Y-55095500D01*
G75*
G02*
X127116000Y-54845501I0J249999D01*
G01*
X127116000Y-54020499D01*
G75*
G02*
X127365999Y-53770500I249999J0D01*
G01*
X128666001Y-53770500D01*
G75*
G02*
X128916000Y-54020499I0J-249999D01*
G01*
X128916000Y-54845501D01*
G75*
G02*
X128666001Y-55095500I-249999J0D01*
G01*
G37*
D13*
X78232000Y-79248000D03*
D12*
X78232000Y-76708000D03*
D20*
X79944000Y-61484000D03*
X78044000Y-61484000D03*
X78994000Y-63484000D03*
X78994000Y-69326000D03*
X78044000Y-67326000D03*
X79944000Y-67326000D03*
G36*
G01*
X78756500Y-55853500D02*
X79231500Y-55853500D01*
G75*
G02*
X79469000Y-56091000I0J-237500D01*
G01*
X79469000Y-56591000D01*
G75*
G02*
X79231500Y-56828500I-237500J0D01*
G01*
X78756500Y-56828500D01*
G75*
G02*
X78519000Y-56591000I0J237500D01*
G01*
X78519000Y-56091000D01*
G75*
G02*
X78756500Y-55853500I237500J0D01*
G01*
G37*
G36*
G01*
X78756500Y-57678500D02*
X79231500Y-57678500D01*
G75*
G02*
X79469000Y-57916000I0J-237500D01*
G01*
X79469000Y-58416000D01*
G75*
G02*
X79231500Y-58653500I-237500J0D01*
G01*
X78756500Y-58653500D01*
G75*
G02*
X78519000Y-58416000I0J237500D01*
G01*
X78519000Y-57916000D01*
G75*
G02*
X78756500Y-57678500I237500J0D01*
G01*
G37*
G36*
G01*
X73512500Y-84237500D02*
X73512500Y-83762500D01*
G75*
G02*
X73750000Y-83525000I237500J0D01*
G01*
X74250000Y-83525000D01*
G75*
G02*
X74487500Y-83762500I0J-237500D01*
G01*
X74487500Y-84237500D01*
G75*
G02*
X74250000Y-84475000I-237500J0D01*
G01*
X73750000Y-84475000D01*
G75*
G02*
X73512500Y-84237500I0J237500D01*
G01*
G37*
G36*
G01*
X75337500Y-84237500D02*
X75337500Y-83762500D01*
G75*
G02*
X75575000Y-83525000I237500J0D01*
G01*
X76075000Y-83525000D01*
G75*
G02*
X76312500Y-83762500I0J-237500D01*
G01*
X76312500Y-84237500D01*
G75*
G02*
X76075000Y-84475000I-237500J0D01*
G01*
X75575000Y-84475000D01*
G75*
G02*
X75337500Y-84237500I0J237500D01*
G01*
G37*
G36*
G01*
X77337500Y-87237500D02*
X77337500Y-86762500D01*
G75*
G02*
X77575000Y-86525000I237500J0D01*
G01*
X78075000Y-86525000D01*
G75*
G02*
X78312500Y-86762500I0J-237500D01*
G01*
X78312500Y-87237500D01*
G75*
G02*
X78075000Y-87475000I-237500J0D01*
G01*
X77575000Y-87475000D01*
G75*
G02*
X77337500Y-87237500I0J237500D01*
G01*
G37*
G36*
G01*
X75512500Y-87237500D02*
X75512500Y-86762500D01*
G75*
G02*
X75750000Y-86525000I237500J0D01*
G01*
X76250000Y-86525000D01*
G75*
G02*
X76487500Y-86762500I0J-237500D01*
G01*
X76487500Y-87237500D01*
G75*
G02*
X76250000Y-87475000I-237500J0D01*
G01*
X75750000Y-87475000D01*
G75*
G02*
X75512500Y-87237500I0J237500D01*
G01*
G37*
D21*
X228000000Y-81000000D03*
X61000000Y-44000000D03*
X167000000Y-113000000D03*
M02*
